
<svg id="레이어_1" data-name="레이어 1" xmlns="http://www.w3.org/2000/svg" viewBox="0 0 822.94 636.95"><defs><style>.cls-1,.cls-10,.cls-11,.cls-12,.cls-13,.cls-17,.cls-18,.cls-19,.cls-2,.cls-21,.cls-22,.cls-23,.cls-3,.cls-4,.cls-5,.cls-6,.cls-7,.cls-8,.cls-9{stroke:#000;}.cls-1,.cls-10,.cls-11,.cls-17,.cls-18,.cls-2,.cls-20,.cls-21,.cls-3,.cls-5,.cls-7{stroke-linecap:round;stroke-linejoin:round;}.cls-1,.cls-10,.cls-11,.cls-12,.cls-13,.cls-19,.cls-20,.cls-21,.cls-22,.cls-23,.cls-4,.cls-5,.cls-6,.cls-8,.cls-9{stroke-width:5px;}.cls-2{fill:#f7ee79;}.cls-18,.cls-2,.cls-3{stroke-width:4px;}.cls-3{fill:none;}.cls-4{fill:#736845;}.cls-12,.cls-13,.cls-19,.cls-22,.cls-23,.cls-4,.cls-6,.cls-8,.cls-9{stroke-miterlimit:10;}.cls-5{fill:#999;}.cls-6{fill:#e6e6e6;}.cls-7{fill:gray;}.cls-17,.cls-7{stroke-width:3px;}.cls-8{fill:#666;}.cls-9{fill:#ccc;}.cls-10{fill:#d4bd96;}.cls-11,.cls-12{fill:#fce9c8;}.cls-13{fill:#f2f2f2;}.cls-14,.cls-21{fill:#006837;}.cls-15,.cls-16,.cls-18,.cls-19{fill:#fff;}.cls-16{font-size:21px;}.cls-16,.cls-25{font-family:MochiyPopOne-Regular, Mochiy Pop One;}.cls-20{fill:#007834;stroke:#1d1d1b;}.cls-22{fill:#cbe786;}.cls-24{font-size:54.46px;fill:#fdfffe;font-family:Tium;}.cls-25{font-size:36.85px;letter-spacing:-0.05em;}</style></defs><path class="cls-1" d="M569.88,587.31s5.54-22,22.85-13.59c12.81,6.26,41.3,18.1,47.84,27.78,7,10.35,6.16,40.12,7.88,56.14,0,0,1.2,4.75-.68,8.35-2.31,4.41-9.18,7.62-18.52,3.1,0,0-2.51-17.34-6.58-45.5a20,20,0,0,0-5.9-10.56C593.33,593.62,569.88,587.31,569.88,587.31Z" transform="translate(-118.67 -169.44)"/><path class="cls-2" d="M626.6,656c7.11-1.15,16.83,8.8,25.49-12.55,0,0,32.43-4.54,71.4,9.94,12.79,5.36,16.18,8.85,16.1,11.33-.25,7.43-14.86,16.13-28.32,20-32.52,9.32-80.55,9.13-83.21-.57,0,0-6.66-17.77-7.43-19.86S623,656.54,626.6,656Z" transform="translate(-118.67 -169.44)"/><path class="cls-3" d="M622.8,670c13.25,2,44.94,5,76.74-5.2" transform="translate(-118.67 -169.44)"/><path class="cls-3" d="M704.52,647.56a29,29,0,0,0-5,17.26c.06,5.84,1.56,13,5.66,21.44" transform="translate(-118.67 -169.44)"/><path class="cls-3" d="M653.56,659.46s-4.26-8.65,5.07-16.58" transform="translate(-118.67 -169.44)"/><path class="cls-3" d="M662.49,659.14s-4.19-8.51,4.85-16.39" transform="translate(-118.67 -169.44)"/><path class="cls-3" d="M671.43,658.82s-4-8,4.11-15.72" transform="translate(-118.67 -169.44)"/><path class="cls-4" d="M329,521.26s-16.1-54,101.22-24.84v63.12c0,23.75,16.78,43.2,37.85,43.87,26,.83,45.64.92,69.81,2.1,37.43,1.82,45.05,40,41.87,104.77H345Z" transform="translate(-118.67 -169.44)"/><rect class="cls-1" x="670.5" y="574.01" width="110.18" height="15.18" rx="5.5" transform="translate(590.46 -517.61) rotate(50.27)"/><rect class="cls-5" x="649.45" y="527.04" width="95.64" height="25.69" rx="12.84" transform="translate(-302.72 400.89) rotate(-39.73)"/><polygon class="cls-6" points="243.25 72.34 262.25 69.34 208.25 395.34 191.25 397.34 243.25 72.34"/><path class="cls-7" d="M250.64,560.61l-46,3.78a13,13,0,0,1-14-11.9l-5.09-61.75a13,13,0,0,1,11.91-14.05l5.55-.46-15-70.75-1.94-8.74a2,2,0,0,0-2.88-1.33c-9.42,5.09-44.64,23.18-50.59,12.63-6.89-12.19-.31-35.27,10.86-34.63,7.37.44,23,.66,37.31,5.84a18,18,0,0,1,11.53,13.29l2.37,11.58,14.65,71.59,12.74-1L207.91,361.08l-1.21-8.87a2,2,0,0,0-2.77-1.57c-9.81,4.29-46.4,19.38-51.46,8.38-5.85-12.73,2.63-35.17,13.7-33.61,7.31,1,22.88,2.57,36.7,8.92a18,18,0,0,1,10.38,14.21l1.4,11.73,13.57,113.88,15.19-1.25a13,13,0,0,1,14,11.91l5.09,61.75A13,13,0,0,1,250.64,560.61Z" transform="translate(-118.67 -169.44)"/><path class="cls-8" d="M142.19,758.35a7.26,7.26,0,0,0-3.16,4.27c-2.73,10.15-7.83,43.82,46.26,41.12,9.34-.46,139.64-1,139.64-1l570.14,1h1.16c17.51,0,29.85-17.52,23.52-33.85a14.93,14.93,0,0,0-.81-1.81c-11.43-20.52-38.5-61.07-75-63.3C798.6,702,712.21,751.42,699.5,758.85a7.26,7.26,0,0,1-3.44,1l-155.22,4.91a7.23,7.23,0,0,1-1.8-.17c-16.77-3.72-265.13-58.7-294.11-55.8C218,711.47,154.94,750.34,142.19,758.35Z" transform="translate(-118.67 -169.44)"/><polygon class="cls-9" points="609.25 78.34 590.25 75.34 667.25 393.34 684.25 395.34 609.25 78.34"/><path class="cls-10" d="M787.65,257.06a27.76,27.76,0,0,1-12.72,2.72c-63.36-.46-200.46-7.17-264-6-108.1,2-219.11,18.57-238.53,2.41,15-15.34,70.94-41.4,278.56-36.41C694.2,223.23,758.89,240.45,787.65,257.06Z" transform="translate(-118.67 -169.44)"/><polygon class="cls-9" points="199.25 62.34 218.25 53.34 165.25 376.34 148.25 378.34 199.25 62.34"/><polygon class="cls-9" points="572.25 49.34 553.25 46.34 639.25 401.34 656.25 403.34 572.25 49.34"/><path class="cls-11" d="M799.05,244.78a23.46,23.46,0,0,1-11.4,12.28C758.89,240.45,694.2,223.23,551,219.78c-207.62-5-263.56,21.07-278.56,36.41-.17-.13-12.95-7.67-7.47-25.41,7.51-24.37,52-61.11,237.49-58.5C502.42,172.28,816.17,162.78,799.05,244.78Z" transform="translate(-118.67 -169.44)"/><path class="cls-12" d="M712.32,761.78c-.26.65-.39,1-.39,1l-.38-1Z" transform="translate(-118.67 -169.44)"/><path class="cls-12" d="M920.93,769.78s-4-65-93-73c-52.54-4.72-83.47,19.13-100,39.47a107.59,107.59,0,0,0-15.61,25.53H461.93V749.52l-63-8.74-244-58s2.79-28.19,6-61c4-41.21,8-89,43-95,57-10,168-26,197,56C409.15,606,450.54,669.64,471,696.26a26.62,26.62,0,0,0,21.36,10.4l185-1.76a25.45,25.45,0,0,0,20.53-10.78C714.24,671,749,614.2,739.18,561.21a15.34,15.34,0,0,1,12-13.79c23.45-5.13,79.88-7.71,132.78,64.36C952.93,705.78,920.93,769.78,920.93,769.78Z" transform="translate(-118.67 -169.44)"/><path class="cls-13" d="M342.21,781.82l392.76.91a16,16,0,0,0,14.6-9.25c8.28-18,32.18-55.52,86.36-51.7,0,0,36,1,58,29,7,8.93,13,21,18.65,27.54a6.12,6.12,0,0,0,4.29,2.11,68.85,68.85,0,0,0,14.49-1.25,9.43,9.43,0,0,0,7.74-9.74c-.74-15.31-2.89-47.13-8.17-51.66-6-2-5,6-14-14-8.57-19-56-46-110-33s-74,36-102,63-240,15-305,0-124-49-245-55c0,0-25-2.85-33.5,83.07,0,0-2.28,14.23,6.78,18.2,2.18,1,23.32.3,23.32.3l16.14-.48a4.85,4.85,0,0,0,4.36-3c5.05-12.19,28.46-58.31,91.9-53.1,0,0,44.09,5.54,66.8,50.92A12.92,12.92,0,0,0,342.21,781.82Z" transform="translate(-118.67 -169.44)"/><path class="cls-14" d="M220.62,590.28l2.71-13.74-.36.36a13.36,13.36,0,0,1-18.87,0,13.38,13.38,0,0,1,0-18.87l22.21-22.2L248.52,558a13.34,13.34,0,0,1-18.87,18.87l-.6-.6,2.21,14Z" transform="translate(-118.67 -169.44)"/><path class="cls-15" d="M226.31,537.24l21.5,21.5a12.34,12.34,0,0,1-17.45,17.45l-2.78-2.77,2.51,15.86h-8.25L225,573.51l-2.68,2.68a12.34,12.34,0,0,1-17.46-17.45l4.05-4,17.45-17.45m0-2.82-1.41,1.41-17.46,17.44-4,4.05a14.35,14.35,0,0,0,18.39,21.88l-1.91,9.69-.47,2.39h13l-.36-2.31-1.59-10a14.38,14.38,0,0,0,18.75-1.33,14.39,14.39,0,0,0,0-20.29l-21.5-21.49-1.42-1.41Z" transform="translate(-118.67 -169.44)"/><text class="cls-16" transform="translate(97.59 397.85)">G</text><path class="cls-1" d="M509.93,595.78s5.73-22.39,24.38-14.7c13.82,5.7,44.49,16.28,51.62,25.7,7.6,10.06,7,40,9,56,0,0,1.33,4.72-.66,8.41-2.43,4.54-9.77,8.09-19.84,4,0,0-2.87-17.31-7.5-45.39a19,19,0,0,0-6.44-10.33C535.15,601,509.93,595.78,509.93,595.78Z" transform="translate(-118.67 -169.44)"/><path class="cls-2" d="M573.33,666.33c7.21-.05,15.29,11.27,27.11-8.5,0,0,32.75.47,69,20.74,11.82,7.25,14.64,11.21,14.18,13.65-1.38,7.31-17.15,13.67-31,15.42-33.56,4.24-81-3.3-82.15-13.29l-4.3-20.76C565.73,671.4,569.73,666.35,573.33,666.33Z" transform="translate(-118.67 -169.44)"/><path class="cls-3" d="M567.43,679.63c12.78,4,43.64,11.86,76.63,6.6" transform="translate(-118.67 -169.44)"/><path class="cls-3" d="M651.62,669.94a29.1,29.1,0,0,0-7.56,16.29c-.84,5.79-.44,13.07,2.31,22.06" transform="translate(-118.67 -169.44)"/><path class="cls-3" d="M599.44,673.91s-2.89-9.2,7.55-15.61" transform="translate(-118.67 -169.44)"/><path class="cls-3" d="M608.32,675s-2.84-9.06,7.29-15.46" transform="translate(-118.67 -169.44)"/><path class="cls-3" d="M617.2,676s-2.68-8.56,6.46-14.91" transform="translate(-118.67 -169.44)"/><polygon class="cls-17" points="505.99 329.68 502.85 352.81 552.65 368.96 561.37 347.9 505.99 329.68"/><path class="cls-18" d="M685.87,549.57c3.35,9.36,6.56,14.71,2.56,17.71s-8.44,1.1-12.74-2.5c-6.78-5.67-13.42-15-14.62-17a5.9,5.9,0,0,1-5.27-.45c-7-4.05-3.64-9.89-3.64-9.89l17-30.74c2.53-5.3,7-4.29,10-2.25,1.4.95,5,3.12,2.87,7.77-.07.15-.6,1.14-1.21,2.3,2.39-.5,7.07-2.48,15.63-9.21,14.28-11.24,17-19.05,22-17.05,5.57,2.23,5,7.32,1.39,12.33,1.81,3.86-.72,9.41-4.26,13.43l-1.06,1.41c1.62,2.93.51,6.89-1.74,10.41C710.9,529.28,698.7,546,685.87,549.57Z" transform="translate(-118.67 -169.44)"/><path class="cls-3" d="M685.87,549.57a17.43,17.43,0,0,1-3.54.63" transform="translate(-118.67 -169.44)"/><path class="cls-3" d="M680.8,514.54l-2.1,3.94" transform="translate(-118.67 -169.44)"/><path class="cls-3" d="M668.64,540s-3.13,6.15-7.57,7.84" transform="translate(-118.67 -169.44)"/><path class="cls-3" d="M694.2,517.3c14.28-11.24,17.1-22.87,22.94-19.49a6.35,6.35,0,0,1,2.68,2.8" transform="translate(-118.67 -169.44)"/><path class="cls-3" d="M693.38,527.31C703.7,518,707.13,510,712.13,513.05a6.54,6.54,0,0,1,2.37,2.4" transform="translate(-118.67 -169.44)"/><circle class="cls-19" cx="392.7" cy="287.39" r="155.2"/><path d="M396.72,536.36a46.34,46.34,0,0,0,1.88,5.9,14,14,0,0,0,2.69,4.27,16.32,16.32,0,0,0,4.11,3.09c1.65,1,3.54,1.77,5.61,2.88a11.89,11.89,0,0,1-6.83.86,11.34,11.34,0,0,1-6.55-3.43,10.79,10.79,0,0,1-2.87-6.91A10.28,10.28,0,0,1,396.72,536.36Z" transform="translate(-118.67 -169.44)"/><path d="M412.79,523.38c1.22,1.76,2.26,3.25,3.31,4.54a14.74,14.74,0,0,0,3.29,3.05,4.26,4.26,0,0,0,.9.53,3.75,3.75,0,0,0,1,.48l1.05.45a11.47,11.47,0,0,1,1.15.35,6.93,6.93,0,0,0,1.23.32c.43.1.87.22,1.33.35a21.43,21.43,0,0,1,2.93.69,12.61,12.61,0,0,1-2.64,1.75c-.49.18-1,.35-1.51.5a6,6,0,0,1-1.59.31c-.55,0-1.1.07-1.66.07a12.48,12.48,0,0,1-1.7-.26,6.81,6.81,0,0,1-1.67-.55,7.35,7.35,0,0,1-1.56-.84,10,10,0,0,1-4-5.45A9.42,9.42,0,0,1,412.79,523.38Z" transform="translate(-118.67 -169.44)"/><path d="M418,555.28a31.66,31.66,0,0,0,2.87,4.87,15.71,15.71,0,0,0,3.24,3.27,27.53,27.53,0,0,0,4.24,2.31c.81.35,1.67.64,2.56,1.07a19.24,19.24,0,0,1,2.83,1.24,14.59,14.59,0,0,1-3,1.22,16.83,16.83,0,0,1-3.19.32,12,12,0,0,1-6.41-2.12,10.44,10.44,0,0,1-3.88-5.74A8.73,8.73,0,0,1,418,555.28Z" transform="translate(-118.67 -169.44)"/><path d="M453.86,557.17a34,34,0,0,0,3.9,4.41,23.94,23.94,0,0,0,4,3,42.48,42.48,0,0,0,4.73,2.25c.85.36,1.77.63,2.7,1.07a20.13,20.13,0,0,1,2.94,1.23,14.64,14.64,0,0,1-3.08,1.22,17,17,0,0,1-3.28.34,13.79,13.79,0,0,1-6.56-1.81,12.23,12.23,0,0,1-4.71-5.12A9.14,9.14,0,0,1,453.86,557.17Z" transform="translate(-118.67 -169.44)"/><path d="M467.83,584.84c1.6,1.38,3,2.51,4.3,3.46a16.35,16.35,0,0,0,4,2.1,5.89,5.89,0,0,0,1,.33l.51.18c.19,0,.37.05.56.1.37.07.73.18,1.12.25s.79.09,1.2.16a10.3,10.3,0,0,0,1.27.13c.43,0,.88.08,1.35.14a20.65,20.65,0,0,1,3,.29,12.38,12.38,0,0,1-2.32,2.08c-.45.25-.91.49-1.39.72a6.25,6.25,0,0,1-1.48.55c-.52.13-1,.24-1.58.34a11.43,11.43,0,0,1-1.66.05,7.86,7.86,0,0,1-.84,0l-.83-.15a8.4,8.4,0,0,1-1.65-.46,10.12,10.12,0,0,1-5.13-4.17A9,9,0,0,1,467.83,584.84Z" transform="translate(-118.67 -169.44)"/><path d="M429.89,541.66a35.79,35.79,0,0,0,2.82,5.46,11.71,11.71,0,0,0,3.43,3.5,16.75,16.75,0,0,0,4.74,2c1.84.54,3.88.89,6.14,1.54a12.35,12.35,0,0,1-6.44,2.38,12.53,12.53,0,0,1-3.64-.24,11.36,11.36,0,0,1-3.55-1.5,10.22,10.22,0,0,1-4.32-6.22A9.86,9.86,0,0,1,429.89,541.66Z" transform="translate(-118.67 -169.44)"/><path d="M441.52,572.78a34.78,34.78,0,0,0,3.17,5.31,13,13,0,0,0,3.71,3.36,22.81,22.81,0,0,0,4.94,1.85c.94.21,1.93.39,3,.67a21,21,0,0,1,3.27.74,16.18,16.18,0,0,1-3,1.7,19,19,0,0,1-3.4.82,12.5,12.5,0,0,1-7.25-1.47,10.68,10.68,0,0,1-4.72-6A9.85,9.85,0,0,1,441.52,572.78Z" transform="translate(-118.67 -169.44)"/><path d="M482.82,575.53a26.83,26.83,0,0,0,4.29,4.14,11.73,11.73,0,0,0,4.31,2,23.56,23.56,0,0,0,5.14.39c.94-.08,1.93-.11,3-.13a20.54,20.54,0,0,1,3.27-.07,15.94,15.94,0,0,1-2.42,2.37,20.23,20.23,0,0,1-2.95,1.67c-.54.18-1.1.36-1.67.51l-.85.23c-.3,0-.6.06-.9.09a16.08,16.08,0,0,1-1.84.08c-.62-.07-1.25-.17-1.87-.27a10,10,0,0,1-6.13-4.25A9,9,0,0,1,482.82,575.53Z" transform="translate(-118.67 -169.44)"/><path d="M386.81,508.21A37.45,37.45,0,0,0,389,514a12.46,12.46,0,0,0,3.06,4,15.61,15.61,0,0,0,2,1.41,25.8,25.8,0,0,0,2.47,1.18c1.78.77,3.78,1.37,6,2.3a12.62,12.62,0,0,1-6.75,1.56,12.49,12.49,0,0,1-3.6-.71,11.53,11.53,0,0,1-3.35-1.93,10.41,10.41,0,0,1-3.6-6.71A10,10,0,0,1,386.81,508.21Z" transform="translate(-118.67 -169.44)"/><path class="cls-20" d="M914.43,278.91" transform="translate(-118.67 -169.44)"/><path class="cls-21" d="M349.77,429c-5.39,1.14-58.65,39.74-52.51,48.49,2.18,3.28,31.44-.06,56.05-10.17C353.31,467.31,353.44,435.14,349.77,429Z" transform="translate(-118.67 -169.44)"/><ellipse class="cls-21" cx="334.26" cy="105.46" rx="17.6" ry="17.33"/><path class="cls-21" d="M388.32,448.13c-23,9.89-35.38,19-35.38,19S310.11,319.8,433.52,283.47C365.65,328.59,388.3,448,388.3,448" transform="translate(-118.67 -169.44)"/><path class="cls-21" d="M626.51,344.64a125.16,125.16,0,0,0-6.16-18.33,119.72,119.72,0,0,0-8.54-16.62,107.34,107.34,0,0,0-10.31-14.1,96.65,96.65,0,0,0-9.18-9.28,91.39,91.39,0,0,0-14-10.19c-2-1.21-4.11-2.34-6.28-3.42-16.9-9.16-41.91-10.15-66.15-7.59-7.36.77-14.65,1.87-21.62,3.17-3.62.66-7.15,1.39-10.55,2.14-8.37,1.88-16,3.94-22.42,5.94-8.6,2.7-15,5.29-17.83,7.11-20,13.31-32.15,33.06-39.32,54.32A160.38,160.38,0,0,0,389.25,356q-1.33,6.33-2.23,12.62c-.95,6.61-1.56,13.13-1.93,19.44-.51,9.05-.51,17.64-.23,25.33.32,8.84,1,16.51,1.68,22.37.9,7.71,1.76,12.29,1.76,12.29l.59-.14c10.09-2.4,148.63-36.16,238.85-97.49C627.74,350.39,627.41,348.25,626.51,344.64ZM497.94,399.81s-3.34-26.24,18.85-36.42,40.35,9.81,40.35,9.81Z" transform="translate(-118.67 -169.44)"/><path class="cls-22" d="M689.43,361.62,570.12,437.07l-18,3.46L398.06,424.4S454.42,499.27,503,498.7c0,0,42,2.88,53.35-43.78l16.79-2.87s18.58,17.85,45,18.43S675.94,446.57,689.43,361.62Z" transform="translate(-118.67 -169.44)"/><path class="cls-23" d="M539.55,452.62,434,442.25s39,46.66,69.55,43.78S539.55,452.62,539.55,452.62Z" transform="translate(-118.67 -169.44)"/><path class="cls-23" d="M670.24,388.69l-87.53,53.56s7.8,13.83,38.37,13.83C660.86,453,670.24,388.69,670.24,388.69Z" transform="translate(-118.67 -169.44)"/><text class="cls-24" transform="translate(372.25 176.36) rotate(-6.79)">G</text><path class="cls-1" d="M344.93,542.78a92.9,92.9,0,0,1,23.68,6.32c9.28,4,9.5,17.17.47,21.74h0a12,12,0,0,1-8.36.94c-9.4-2.37-29.89-9.28-26.79-24,3.49-16.59,28-39,34.77-43.51,2.23-1.49,14.39-9.11,19.23-2.49,4,5,3,13-5.91,21.51l-27.09,31.49" transform="translate(-118.67 -169.44)"/><path class="cls-18" d="M359.71,580.55c-2.06-.87-5.54-2.76-7.42-6.11-2.83-5-2.08-13.32,9.17-19.59,0,0,11.88-6.26,18.94-1.85,2.74,1.71,3.62,5.11,3.32,10.7" transform="translate(-118.67 -169.44)"/><path class="cls-18" d="M386.27,627.68a25.85,25.85,0,0,0,10.13-2.26c9.16-4.29,18.27-14.93,13.16-33.35-5.79-20.89-18-26.79-25.84-28.37a23.4,23.4,0,0,0-7.05-.45" transform="translate(-118.67 -169.44)"/><path class="cls-18" d="M368.39,628c8,2.21,13.78,1.64,17.88-.35,11.17-5.44,10.26-21.5,10.26-21.5" transform="translate(-118.67 -169.44)"/><path class="cls-3" d="M387.56,627a19,19,0,0,0,8.45-1.78c11.17-5.44,10.26-21.49,10.26-21.49" transform="translate(-118.67 -169.44)"/><path class="cls-18" d="M361.75,591.08c-6.19,4.64-12.13,12.33-12,20.15.08,4.48.71,9.58,7,13.09,4.59,2.56,8.41,3.64,11.6,3.71,13.68.33,15.58-17.93,15.58-17.93" transform="translate(-118.67 -169.44)"/><path class="cls-18" d="M364.69,569.53s-11.38,13.58-.45,24.71,8.76,15.5,8.76,15.5" transform="translate(-118.67 -169.44)"/><path class="cls-18" d="M364.06,614.52a17.73,17.73,0,0,1,3.4-8,40.23,40.23,0,0,1,3.41-4.18" transform="translate(-118.67 -169.44)"/><path class="cls-18" d="M359.34,607.76s4.93-2,8.12-1.21" transform="translate(-118.67 -169.44)"/><polygon class="cls-15" points="245.51 406.74 259.29 397.57 266.52 438.45 260.78 440.84 249.34 425.37 245.51 406.74"/><text class="cls-25" transform="translate(72.2 457.34)">GOXO</text></svg>