<svg width="163" height="163" viewBox="0 0 163 163" fill="none" xmlns="http://www.w3.org/2000/svg">
<path d="M81.5 160.5C125.13 160.5 160.5 125.13 160.5 81.5C160.5 37.8695 125.13 2.5 81.5 2.5C37.8695 2.5 2.5 37.8695 2.5 81.5C2.5 125.13 37.8695 160.5 81.5 160.5Z" fill="black" stroke="black" stroke-width="5" stroke-miterlimit="10"/>
<path d="M81.5 118.5C102.487 118.5 119.5 101.487 119.5 80.5C119.5 59.5132 102.487 42.5 81.5 42.5C60.5132 42.5 43.5 59.5132 43.5 80.5C43.5 101.487 60.5132 118.5 81.5 118.5Z" fill="#CCCCCC" stroke="black" stroke-width="5" stroke-miterlimit="10"/>
<path d="M145.49 96.65C145.49 96.65 143 123 123.14 133" stroke="#CCCCCC" stroke-width="5" stroke-linecap="round" stroke-linejoin="round"/>
<path d="M132.09 97.19C132.09 97.19 130.7 111.79 119.7 117.32" stroke="#CCCCCC" stroke-width="5" stroke-linecap="round" stroke-linejoin="round"/>
<path d="M16.53 70.82C16.53 70.82 19.25 44.49 39.17 34.67" stroke="#CCCCCC" stroke-width="5" stroke-linecap="round" stroke-linejoin="round"/>
<path d="M29.9399 70.38C29.9399 70.38 31.4399 55.8 42.4799 50.38" stroke="#CCCCCC" stroke-width="5" stroke-linecap="round" stroke-linejoin="round"/>
</svg>
