<svg width="47" height="125" viewBox="0 0 47 125" fill="none" xmlns="http://www.w3.org/2000/svg">
<g clip-path="url(#clip0_29_1436)">
<path d="M5.95549 0.784092C5.95549 0.784092 10.6107 0.987365 11.8945 1.0519C13.1783 1.11643 20.5955 1.18741 23.0237 0.987365C25.4518 0.787318 35.3685 1.52297 37.7286 2.12634C40.0886 2.7297 46.0925 4.20747 46.6307 5.75299L46.4977 24.7542V34.4887L42.5849 34.2177C42.5849 34.2177 34.6943 33.1464 34.3539 33.0787C34.0135 33.0109 25.7209 32.6754 24.4403 32.8754C23.1598 33.0755 15.266 33.8821 15.266 33.8821C15.266 33.8821 12.0242 34.1531 11.4212 34.0176C10.8182 33.8821 7.98163 33.0109 7.98163 33.0109L5.89062 33.3336C5.89062 33.3336 6.09164 0.651803 5.95549 0.784092Z" fill="#6CA33D"/>
<path d="M4.81074 123.906V0.329012C4.81074 0.329012 5.8222 0.0257161 5.95511 0.251575C6.08803 0.477434 5.95511 1.9197 5.95511 1.9197L6.49647 27.516L6.56458 60.5333L7.23886 104.605L7.22264 124.445L4.3374 124.561L4.81074 123.906Z" fill="white"/>
<path d="M4.79773 124.242C4.90579 114.36 4.99655 104.478 5.07003 94.5962C5.14567 84.5961 5.19649 74.5937 5.22243 64.5893C5.22243 57.1682 5.2224 49.7213 5.15108 42.2873C5.07651 35.1728 4.97929 28.055 4.93714 20.9372C4.90148 14.626 4.85934 8.31167 5.05709 2.00053C5.07654 1.41975 5.08949 0.835745 5.11542 0.254965C5.11542 0.0839571 4.64537 0.0839571 4.63888 0.254965C4.36981 6.27894 4.38279 12.3029 4.40548 18.3237C4.43141 25.4866 4.51894 32.6496 4.60323 39.8125C4.68103 46.8163 4.71884 53.8222 4.71668 60.8303C4.71668 70.8692 4.68429 80.907 4.61945 90.9438C4.57082 100.82 4.50272 110.697 4.5092 120.573V124.226C4.5092 124.329 4.79773 124.329 4.79773 124.226V124.242Z" fill="#001B93"/>
<path d="M7.33966 124.681C7.45313 115.343 7.411 106.002 7.31374 96.6612C7.21649 87.0105 7.07709 77.3631 6.98956 67.7125C6.91175 59.9139 6.91177 52.1121 6.84694 44.3135C6.78426 37.1355 6.687 29.9575 6.55516 22.7795C6.43846 15.936 6.30229 9.08921 6.1013 2.24568C6.08185 1.57456 6.05917 0.900209 6.03324 0.229086C6.03324 0.0580782 5.55342 0.0580782 5.55666 0.229086C5.70902 6.82094 5.88086 13.4128 5.98785 20.0046C6.12184 27.3053 6.2299 34.608 6.31203 41.913C6.38983 49.334 6.38982 56.7551 6.45789 64.1504C6.54542 73.8042 6.69455 83.4549 6.82422 93.1055C6.94741 102.514 7.02954 111.921 7.0706 121.325C7.0706 122.446 7.0706 123.564 7.0706 124.681C7.0706 124.787 7.35913 124.787 7.35913 124.681H7.33966Z" fill="#001B93"/>
<path d="M4.75889 122.367C4.3079 122.354 3.85653 122.367 3.40703 122.406C2.90592 122.444 2.40781 122.514 1.9158 122.616C1.0243 122.809 0.0485393 123.164 -8.81032e-05 123.761C-0.0422318 124.293 0.891386 124.587 1.67267 124.729C2.39624 124.851 3.12734 124.925 3.8609 124.948C4.36662 124.971 4.87561 124.968 5.38134 124.965C6.12047 124.965 6.86608 124.932 7.60198 124.884C8.34462 124.843 9.08404 124.757 9.81613 124.626C10.3672 124.516 10.98 124.355 11.2847 124.058C11.5894 123.761 11.4046 123.371 11.0416 123.09C10.3446 122.558 9.03812 122.445 7.93914 122.399C7.696 122.399 7.45287 122.399 7.20973 122.399C6.81099 122.399 6.81099 122.745 7.20973 122.748C7.44963 122.748 7.68627 122.748 7.92616 122.748L8.30222 122.764L8.66855 122.79C8.93438 122.816 9.20019 122.848 9.45629 122.896C9.67759 122.933 9.89474 122.992 10.1047 123.071L10.1792 123.096H10.2117L10.3413 123.161L10.4645 123.232L10.4872 123.248L10.5423 123.293C10.5845 123.327 10.6245 123.364 10.6622 123.403L10.7141 123.458C10.753 123.5 10.6979 123.432 10.7141 123.458C10.7303 123.484 10.7595 123.525 10.7757 123.558L10.7952 123.606C10.8146 123.661 10.7952 123.567 10.7952 123.622C10.7984 123.651 10.7984 123.68 10.7952 123.709C10.7952 123.764 10.7952 123.674 10.7952 123.709C10.7901 123.726 10.7836 123.742 10.7757 123.758C10.7694 123.771 10.7618 123.784 10.753 123.797C10.7271 123.848 10.7854 123.764 10.753 123.797C10.7276 123.825 10.7006 123.852 10.672 123.877L10.6493 123.897C10.6201 123.922 10.7012 123.861 10.6493 123.897L10.5974 123.929L10.4677 124C10.4418 124 10.3835 124.051 10.4677 124C10.4438 124.012 10.4189 124.023 10.3932 124.032L10.2246 124.093L9.86152 124.193H9.82262L9.7189 124.213L9.48546 124.258C9.32661 124.287 9.16128 124.313 9.00568 124.335C8.65556 124.384 8.3022 124.422 7.94884 124.452H7.81595H7.74785C7.84186 124.452 7.74785 124.452 7.74785 124.452L7.45932 124.471L6.92445 124.5C6.56785 124.516 6.20798 124.529 5.84814 124.535C5.2873 124.535 4.72324 124.552 4.15916 124.535C3.98842 124.535 3.81662 124.529 3.64372 124.516H3.42001H3.29358H3.232C3.17365 124.516 3.30006 124.516 3.20604 124.516L2.61605 124.461C2.40533 124.435 2.20108 124.41 1.99685 124.377L1.72779 124.329L1.58838 124.3H1.51706H1.47167C1.51058 124.3 1.51382 124.3 1.47167 124.3C1.29662 124.251 1.14751 124.2 0.96597 124.142C0.904375 124.119 1.01784 124.168 0.96597 124.142L0.917334 124.119L0.826554 124.071L0.742263 124.019C0.800616 124.055 0.742263 124.019 0.742263 124.019L0.696873 123.98L0.641787 123.922C0.687173 123.971 0.641771 123.906 0.625562 123.893L0.628807 123.845C0.648258 123.893 0.628807 123.845 0.628807 123.845C0.628807 123.845 0.628807 123.813 0.628807 123.797C0.627209 123.772 0.627209 123.747 0.628807 123.722C0.628807 123.771 0.628807 123.722 0.628807 123.722V123.684C0.639596 123.655 0.653744 123.628 0.670952 123.603L0.693628 123.564C0.664451 123.606 0.693647 123.564 0.713098 123.545C0.7585 123.494 0.809615 123.449 0.865454 123.409L0.927069 123.367L1.05026 123.296C1.08143 123.279 1.11392 123.264 1.14749 123.251L1.20586 123.222H1.22854C1.32579 123.183 1.4263 123.148 1.5268 123.116C1.95726 122.981 2.39873 122.884 2.84621 122.825C3.08286 122.79 3.32278 122.761 3.56268 122.738H3.73122H3.76691H3.84796L4.17214 122.722C4.35368 122.722 4.53845 122.722 4.71999 122.722C4.90153 122.722 4.9858 122.651 4.9858 122.574C4.9858 122.496 4.86263 122.432 4.71999 122.425L4.75889 122.367Z" fill="#001B93"/>
<path d="M7.02186 122.8C6.96351 123.351 7.16452 123.893 7.16128 124.442C7.16128 124.535 7.30066 124.613 7.46275 124.613C7.62484 124.613 7.75453 124.535 7.76425 124.442C7.81936 123.997 7.46599 123.519 7.78368 123.096H7.1872C7.29704 123.242 7.3875 123.402 7.4563 123.571C7.48577 123.637 7.4982 123.709 7.49254 123.781C7.48689 123.853 7.46327 123.923 7.42385 123.984H7.96849C7.96849 123.984 7.96847 123.984 7.95227 123.968C7.93606 123.951 7.96847 123.984 7.95227 123.968C7.93606 123.951 7.92634 123.929 7.9231 123.922C7.90013 123.884 7.88163 123.843 7.86797 123.8L7.84854 123.745C7.84854 123.745 7.82909 123.661 7.84854 123.709C7.83702 123.659 7.82834 123.609 7.82258 123.558C7.80965 123.459 7.80965 123.359 7.82258 123.261C7.82258 123.213 7.82258 123.3 7.82258 123.261V123.232C7.82968 123.208 7.83949 123.186 7.85179 123.164C7.85847 123.146 7.86715 123.129 7.87771 123.113C7.87771 123.113 7.90689 123.067 7.87771 123.096C7.84853 123.125 7.87773 123.077 7.89718 123.074L7.93933 123.035C7.9685 123.003 7.88746 123.058 7.93933 123.035L7.96525 123.019C8.0236 122.987 7.91985 123.019 7.99117 123.019C8.06249 123.019 8.01387 123.019 7.96525 123.019H8.02037C8.02037 123.019 8.08845 123.019 8.02037 123.019C8.06251 123.019 8.09817 123.019 8.02037 123.019L8.12409 123.035H8.16299C8.22459 123.035 8.1079 123.019 8.18246 123.035C8.25702 123.051 8.31862 123.077 8.38345 123.103L8.47095 123.135C8.54227 123.164 8.42234 123.113 8.49042 123.135L8.55524 123.164C8.68672 123.229 8.81445 123.301 8.93779 123.38L9.03827 123.448L9.08366 123.477C9.08366 123.477 9.14525 123.522 9.08366 123.477C9.13877 123.519 9.19388 123.561 9.24575 123.606L9.37219 123.722L9.41758 123.768C9.46296 123.822 9.40137 123.742 9.41758 123.768L9.49862 123.59C9.44875 123.623 9.39678 123.654 9.34302 123.68C9.27494 123.716 9.38842 123.68 9.31386 123.68L9.21334 123.713C9.14202 123.735 9.26845 123.713 9.21334 123.713L9.12905 123.729C9.12905 123.729 9.04478 123.729 9.02857 123.729H9.05774C9.00263 123.729 9.05773 123.729 9.0869 123.729C9.05992 123.727 9.03285 123.727 9.00586 123.729H8.92481H8.8924C8.83405 123.729 8.96697 123.751 8.8924 123.729C8.81784 123.706 8.79192 123.7 8.74654 123.68C8.72031 123.675 8.69515 123.665 8.67198 123.651C8.67198 123.651 8.73031 123.68 8.68817 123.651L8.63953 123.626C8.59678 123.606 8.55559 123.583 8.51634 123.558L8.45476 123.519L8.4256 123.5C8.49044 123.542 8.44505 123.5 8.4256 123.5C8.40615 123.5 8.35426 123.442 8.32508 123.413C8.30939 123.399 8.29526 123.384 8.28294 123.367L8.25702 123.335V123.313C8.25702 123.313 8.25699 123.284 8.23106 123.267C8.22923 123.252 8.22923 123.237 8.23106 123.222C8.23106 123.222 8.23106 123.2 8.23106 123.196C8.23106 123.193 8.23106 123.251 8.23106 123.213C8.22943 123.185 8.22943 123.157 8.23106 123.129C8.23106 123.103 8.20836 123.18 8.23106 123.129L8.25377 123.09C8.25377 123.058 8.20839 123.129 8.25377 123.09V123.074C8.27971 123.048 8.25375 123.1 8.23106 123.09L8.27969 123.061H8.29916C8.29916 123.061 8.21488 123.09 8.29916 123.061L8.36074 123.042C8.39316 123.042 8.27647 123.042 8.33482 123.042H8.36723H8.45801C8.48394 123.042 8.53581 123.042 8.45801 123.042H8.51959C8.59948 123.037 8.67959 123.037 8.75948 123.042H8.80811C8.71734 123.042 8.80811 123.042 8.80811 123.042H8.91832L9.01884 123.058C9.10961 123.074 8.9702 123.042 9.05125 123.058L9.1323 123.083H9.1712C9.23927 123.103 9.12581 123.058 9.1712 123.083C9.21658 123.109 9.24575 123.132 9.28465 123.148C9.32355 123.164 9.23929 123.109 9.26847 123.148L9.2879 123.164L9.33653 123.213L9.35276 123.235C9.37545 123.254 9.32682 123.187 9.35276 123.219L9.37543 123.261C9.38407 123.275 9.39064 123.29 9.3949 123.306V123.325C9.3949 123.361 9.3949 123.274 9.3949 123.325C9.3949 123.377 9.3949 123.387 9.3949 123.416C9.3949 123.445 9.3949 123.448 9.3949 123.464C9.3949 123.48 9.3949 123.503 9.3949 123.464C9.3949 123.426 9.3949 123.464 9.3949 123.464C9.3949 123.464 9.37221 123.522 9.35925 123.551L9.33004 123.593C9.30087 123.648 9.35922 123.564 9.33004 123.593C9.30582 123.622 9.27984 123.649 9.25224 123.674L9.2101 123.709C9.16471 123.748 9.26196 123.677 9.2101 123.709L9.10962 123.768C9.05451 123.8 9.1777 123.745 9.10962 123.768L9.03827 123.793H9.01559C8.96048 123.809 9.01558 123.793 9.04476 123.793C9.02317 123.792 9.00153 123.792 8.97994 123.793H8.96047C9.02855 123.793 8.96047 123.793 8.92481 123.793H8.88267C8.88267 123.793 8.97345 123.793 8.9313 123.793H8.86324C8.78543 123.793 8.92807 123.813 8.86324 123.793L8.73356 123.845C8.66548 123.819 8.7757 123.868 8.73356 123.845L8.66549 123.806L8.60063 123.768C8.60063 123.768 8.54876 123.726 8.60063 123.768L8.56173 123.735C8.51545 123.698 8.4721 123.657 8.43205 123.613L8.38021 123.555C8.38021 123.555 8.35752 123.522 8.38021 123.555L8.35749 123.519C8.33767 123.487 8.32036 123.454 8.30565 123.419C8.30565 123.419 8.30565 123.4 8.30565 123.393C8.30565 123.387 8.30565 123.445 8.30565 123.413C8.30565 123.38 8.30565 123.377 8.30565 123.358C8.30565 123.338 8.30565 123.322 8.30565 123.319C8.30565 123.316 8.28296 123.374 8.30565 123.319C8.30741 123.308 8.30741 123.297 8.30565 123.287C8.30565 123.258 8.26351 123.332 8.30565 123.306V123.287L8.33806 123.258C8.33806 123.258 8.27323 123.296 8.33806 123.258L8.38021 123.235C8.43208 123.206 8.30565 123.261 8.38021 123.235L8.48393 123.203C8.53256 123.187 8.39965 123.219 8.45152 123.203H8.47744H8.552H8.6201C8.70763 123.203 8.57796 123.203 8.6201 123.203H8.75948H8.90214C8.9378 123.203 8.80488 123.203 8.90214 123.203H8.97994L9.11286 123.225H9.15177H9.10962C9.13495 123.235 9.16096 123.242 9.18742 123.248L9.30412 123.29C9.34302 123.29 9.23604 123.251 9.30412 123.29L9.35925 123.319L9.40139 123.348C9.44354 123.371 9.35599 123.306 9.38192 123.332L9.41433 123.364C9.44351 123.39 9.38516 123.313 9.41433 123.364C9.41375 123.375 9.41375 123.386 9.41433 123.396C9.41433 123.396 9.41433 123.451 9.41433 123.416C9.41596 123.433 9.41596 123.45 9.41433 123.467C9.41433 123.516 9.41433 123.422 9.41433 123.467L9.3949 123.513L9.3657 123.561C9.3657 123.587 9.3657 123.542 9.3657 123.545L9.33978 123.574C9.30736 123.61 9.27171 123.646 9.23281 123.68L9.16146 123.732C9.21009 123.697 9.16146 123.732 9.16146 123.732L9.08041 123.784L8.9702 123.845L8.92806 123.868C8.86322 123.903 8.96372 123.868 8.92806 123.868L8.82109 123.906L8.76921 123.922C8.70762 123.945 8.83405 123.922 8.76921 123.922L8.67198 123.939C8.61039 123.939 8.73032 123.939 8.69466 123.939H8.61037C8.54877 123.939 8.69143 123.939 8.62984 123.939C8.56824 123.939 8.51311 123.916 8.57147 123.939C8.62982 123.961 8.54877 123.939 8.53257 123.939L8.48717 123.922C8.48717 123.922 8.54876 123.955 8.5131 123.922L8.44827 123.884C8.44827 123.884 8.39641 123.845 8.44827 123.884L8.41586 123.855L8.40937 123.845C8.40937 123.845 8.35424 123.771 8.3899 123.826C8.36301 123.788 8.3402 123.748 8.32184 123.706L8.30241 123.642C8.32186 123.7 8.30241 123.626 8.30241 123.613C8.29592 123.566 8.29592 123.518 8.30241 123.471C8.30393 123.459 8.30393 123.447 8.30241 123.435C8.30241 123.484 8.30241 123.435 8.30241 123.435C8.30801 123.414 8.31559 123.394 8.32508 123.374C8.33569 123.351 8.34759 123.328 8.36074 123.306L8.3867 123.264C8.36725 123.296 8.3867 123.264 8.3867 123.264C8.42594 123.219 8.46932 123.178 8.51634 123.142C8.51634 123.142 8.55848 123.116 8.51634 123.142L8.56822 123.106C8.59919 123.086 8.63173 123.069 8.66549 123.054H8.18891L8.28618 123.106C8.28618 123.106 8.33157 123.145 8.28618 123.106C8.2408 123.067 8.30562 123.106 8.3121 123.132C8.31859 123.158 8.35751 123.19 8.33482 123.148L8.36398 123.213C8.34129 123.161 8.36398 123.213 8.36398 123.238C8.36398 123.264 8.36398 123.254 8.36398 123.261C8.36398 123.267 8.38343 123.219 8.36398 123.261C8.34453 123.303 8.34779 123.29 8.34131 123.306C8.33482 123.322 8.37373 123.28 8.34131 123.306C8.33187 123.315 8.32318 123.325 8.31535 123.335L8.29267 123.355C8.29267 123.374 8.35103 123.322 8.29267 123.355L8.24079 123.387C8.20189 123.409 8.26351 123.371 8.26351 123.387C8.26351 123.403 8.23105 123.387 8.22781 123.387C8.1727 123.409 8.29589 123.367 8.22781 123.387C8.22781 123.387 8.16622 123.387 8.22781 123.387C8.28941 123.387 8.22781 123.387 8.22781 123.387C8.22781 123.387 8.30886 123.403 8.22781 123.387C8.14677 123.371 8.25702 123.387 8.25702 123.387H8.21812C8.1857 123.367 8.27647 123.422 8.21812 123.387C8.20619 123.378 8.19308 123.372 8.17922 123.367C8.1468 123.367 8.21488 123.403 8.17922 123.367L8.15001 123.342L8.12409 123.313C8.15327 123.345 8.12409 123.313 8.12409 123.313C8.12409 123.313 8.09167 123.258 8.0787 123.229C8.06573 123.2 8.0787 123.203 8.0787 123.187C8.0787 123.171 8.0787 123.203 8.0787 123.187C8.0787 123.171 8.0787 123.145 8.0787 123.125C8.0787 123.2 8.0787 123.125 8.0787 123.125C8.0787 123.125 8.04304 123.171 8.0787 123.125C8.11436 123.08 8.12409 123.093 8.0787 123.125C8.13057 123.09 8.02359 123.142 8.0787 123.125C8.13381 123.109 8.04304 123.125 8.0787 123.125H8.16299C8.23431 123.125 8.09166 123.125 8.18891 123.125H8.47095C8.42232 123.125 8.47095 123.125 8.47095 123.125H8.53257L8.65251 123.142C8.80488 123.158 8.95725 123.18 9.10637 123.209L9.22632 123.232C9.31709 123.251 9.19066 123.232 9.22632 123.232H9.2782C9.35388 123.251 9.42853 123.273 9.50187 123.3C9.50187 123.3 9.60235 123.342 9.56993 123.325C9.53752 123.309 9.56993 123.325 9.56993 123.325L9.61532 123.348L9.67694 123.384C9.69963 123.384 9.75149 123.438 9.7061 123.4C9.73868 123.426 9.76905 123.455 9.79689 123.487C9.83579 123.526 9.79689 123.464 9.79689 123.487C9.8085 123.503 9.81827 123.52 9.82605 123.538C9.82605 123.538 9.82607 123.567 9.84228 123.584C9.85848 123.6 9.84228 123.532 9.84228 123.584C9.84228 123.635 9.84228 123.584 9.84228 123.603C9.84548 123.634 9.84548 123.665 9.84228 123.697C9.84228 123.732 9.86173 123.661 9.84228 123.697V123.716C9.83778 123.732 9.83122 123.747 9.82281 123.761C9.81721 123.776 9.80959 123.79 9.80013 123.803C9.80013 123.826 9.75474 123.861 9.80013 123.819C9.7742 123.848 9.74826 123.88 9.71908 123.909L9.67694 123.945L9.64773 123.971C9.68015 123.945 9.61856 123.99 9.60883 123.997L9.55375 124.029C9.50799 124.058 9.46032 124.084 9.41109 124.106L9.36894 124.126C9.32356 124.148 9.41433 124.11 9.36894 124.126L9.28141 124.158C9.21885 124.183 9.15501 124.204 9.09015 124.222L8.99616 124.248C9.07721 124.226 8.99613 124.248 8.96047 124.248C8.92481 124.248 8.82431 124.271 8.75623 124.277H8.71733C8.6687 124.277 8.67195 124.277 8.71733 124.277C8.68294 124.282 8.64801 124.282 8.61361 124.277C8.5446 124.284 8.47514 124.284 8.40613 124.277C8.50338 124.3 8.40613 124.277 8.37047 124.277L8.25702 124.258H8.21812H8.18571C8.23433 124.258 8.18571 124.258 8.18571 124.258L8.11436 124.239C8.1565 124.326 8.19865 124.413 8.23755 124.5C8.36984 124.347 8.5412 124.232 8.73356 124.168C8.88592 124.103 9.13879 124.019 9.34302 123.958L8.88267 123.89C8.88267 123.909 8.88267 123.909 8.88267 123.89C8.88441 123.899 8.88441 123.907 8.88267 123.916C8.88267 123.887 8.88267 123.884 8.88267 123.916V123.942C8.88267 123.909 8.88267 123.916 8.88267 123.942C8.88267 123.968 8.88267 123.942 8.88267 123.942L8.85999 123.964L8.83407 123.984C8.86325 123.964 8.86325 123.964 8.83407 123.984L8.77895 124.016C8.77895 124.016 8.67846 124.058 8.74654 124.016L8.66549 124.048C8.6039 124.071 8.53903 124.087 8.47419 124.106H8.44827L8.34131 124.129C8.2814 124.142 8.22076 124.152 8.15975 124.158H8.05927H8.01388H8.03656L8.36074 124.297C8.35123 124.28 8.34364 124.263 8.33806 124.245C8.33806 124.287 8.33806 124.245 8.33806 124.226C8.33645 124.209 8.33645 124.191 8.33806 124.174C8.33806 124.213 8.33806 124.174 8.33806 124.155C8.37186 124.079 8.41085 124.006 8.45476 123.935C8.57132 123.788 8.62491 123.602 8.60388 123.416C8.55003 123.254 8.45514 123.108 8.32833 122.993C8.24214 122.898 8.15012 122.809 8.05278 122.725L7.47573 122.912C7.58435 123.004 7.68621 123.103 7.78048 123.209L8.23755 122.954L8.17922 122.932L8.14356 122.912C8.09493 122.893 8.16301 122.932 8.14356 122.912C8.12411 122.893 8.14356 122.88 8.14356 122.912C8.12302 122.866 8.09916 122.82 8.07221 122.777L7.83881 123.006H7.89718C7.96202 123.006 7.81613 123.006 7.89718 123.006H8.06252C8.13708 123.006 8.00416 123.006 8.06252 123.006L8.20838 123.025L8.32184 123.045H8.3867C8.46126 123.061 8.34455 123.045 8.3867 123.045C8.42884 123.045 8.55849 123.093 8.63953 123.122C8.67929 123.134 8.71827 123.148 8.75623 123.164L8.82109 123.19C8.89214 123.22 8.96142 123.255 9.02857 123.293L9.11611 123.348L9.15826 123.377C9.15826 123.377 9.11611 123.342 9.15826 123.377L9.22632 123.435L9.24575 123.455L9.26522 123.477C9.26522 123.493 9.26522 123.477 9.26522 123.461C9.26522 123.445 9.2879 123.496 9.29114 123.506C9.29438 123.516 9.29114 123.535 9.29114 123.535C9.29114 123.535 9.29114 123.487 9.29114 123.535C9.28962 123.542 9.28962 123.548 9.29114 123.555C9.29114 123.597 9.26845 123.532 9.29114 123.538C9.31383 123.545 9.29114 123.561 9.29114 123.564C9.29114 123.567 9.32356 123.516 9.29114 123.548L9.26522 123.574C9.26522 123.574 9.32033 123.535 9.26522 123.574C9.21011 123.613 9.32355 123.574 9.24575 123.574C9.21657 123.574 9.13553 123.603 9.2101 123.574H9.14203C9.12258 123.574 9.00262 123.574 9.09339 123.574H9.05774C8.98642 123.574 9.13554 123.574 9.05774 123.574C8.97994 123.574 9.12906 123.597 9.05774 123.574C9.12906 123.597 9.10636 123.597 9.09015 123.574C9.15174 123.613 9.11933 123.6 9.09015 123.574C9.13554 123.626 9.09015 123.6 9.09015 123.574C9.11284 123.651 9.09015 123.558 9.09015 123.551C9.09015 123.545 9.0707 123.597 9.09015 123.551V123.529L9.11286 123.493C9.08693 123.542 9.11286 123.493 9.11286 123.493L9.1712 123.438C9.20361 123.406 9.11608 123.467 9.1712 123.438L9.21334 123.413C9.24576 123.39 9.13556 123.438 9.11611 123.442C9.05079 123.454 8.98365 123.454 8.91832 123.442C8.97343 123.458 8.85349 123.403 8.91832 123.442C8.98316 123.48 8.87942 123.4 8.91832 123.442L8.94104 123.464C8.98318 123.5 8.91186 123.448 8.94104 123.448C8.97021 123.448 8.94104 123.471 8.94104 123.474C8.94104 123.477 8.94104 123.519 8.94104 123.458C8.94104 123.477 8.94104 123.509 8.94104 123.458C8.94104 123.458 8.97346 123.416 8.94104 123.432C8.97994 123.406 8.98965 123.4 8.96696 123.413L9.0091 123.393C8.97993 123.393 9.0091 123.393 9.04476 123.393C9.04476 123.393 8.99291 123.393 8.98643 123.393C9.07072 123.393 9.01561 123.393 8.98643 123.393H8.86648L9.19067 123.532C9.19067 123.516 9.19064 123.496 9.16795 123.48C9.14526 123.464 9.16795 123.48 9.16795 123.496C9.16795 123.513 9.16795 123.496 9.16795 123.477C9.16945 123.461 9.16945 123.445 9.16795 123.429C9.16795 123.429 9.16795 123.464 9.16795 123.448C9.16924 123.437 9.16924 123.427 9.16795 123.416L9.19067 123.38C9.17446 123.413 9.17446 123.4 9.19067 123.38C9.20687 123.361 9.23605 123.338 9.19067 123.38C9.14528 123.422 9.2166 123.364 9.22957 123.358C9.24253 123.351 9.30737 123.332 9.22957 123.358L9.28141 123.338C9.28141 123.338 9.36897 123.316 9.31386 123.338H9.34951C9.36896 123.338 9.44028 123.338 9.38517 123.338C9.33006 123.338 9.40785 123.338 9.41758 123.338C9.49214 123.338 9.41758 123.338 9.41758 123.338C9.44349 123.337 9.46947 123.337 9.49538 123.338C9.45323 123.338 9.44351 123.338 9.49538 123.338H9.53103C9.53103 123.338 9.48566 123.313 9.50511 123.338L9.56348 123.367C9.56348 123.367 9.53107 123.338 9.56348 123.367L9.59265 123.39L9.63804 123.438C9.6121 123.406 9.63804 123.438 9.63804 123.458C9.63804 123.477 9.63802 123.493 9.66071 123.509C9.68341 123.526 9.66071 123.493 9.66071 123.49C9.65912 123.501 9.65912 123.512 9.66071 123.522C9.66071 123.558 9.66071 123.503 9.66071 123.522C9.66071 123.542 9.69313 123.49 9.66071 123.522C9.6283 123.555 9.71584 123.487 9.68018 123.522C9.7353 123.49 9.74502 123.496 9.71908 123.503H9.76447C9.71909 123.503 9.86496 123.503 9.79689 123.503H9.85197H9.83254C9.83254 123.503 9.80662 123.503 9.80338 123.503H9.84873L9.7904 123.484C9.74825 123.484 9.83902 123.513 9.7904 123.484C9.74177 123.455 9.72881 123.442 9.76123 123.484C9.79365 123.526 9.76121 123.467 9.73851 123.461C9.71582 123.455 9.73851 123.484 9.73851 123.461C9.73231 123.444 9.72473 123.428 9.71584 123.413C9.71584 123.413 9.71584 123.451 9.71584 123.429C9.71584 123.406 9.71584 123.406 9.71584 123.396C9.71584 123.387 9.71584 123.338 9.71584 123.361C9.71584 123.384 9.71584 123.361 9.71584 123.361L9.73527 123.319L9.41109 123.458H9.50187C9.46945 123.458 9.45972 123.458 9.50187 123.458H9.58616C9.54077 123.458 9.56347 123.458 9.58616 123.458L9.64453 123.477C9.58942 123.455 9.64453 123.477 9.64453 123.477L9.69637 123.506C9.64774 123.477 9.69637 123.506 9.69637 123.522L9.73527 123.558C9.73527 123.558 9.7612 123.59 9.73527 123.558C9.75232 123.584 9.76749 123.611 9.78066 123.638C9.80335 123.684 9.78066 123.606 9.78066 123.655C9.78239 123.669 9.78239 123.683 9.78066 123.697C9.78214 123.71 9.78214 123.725 9.78066 123.738C9.78066 123.703 9.78066 123.738 9.78066 123.738L10.2799 123.626L10.2151 123.606C10.1599 123.606 10.2475 123.629 10.2151 123.606C10.1826 123.584 10.1535 123.567 10.2151 123.606C10.2017 123.597 10.1897 123.586 10.1794 123.574L10.1405 123.535C10.121 123.516 10.1405 123.564 10.1405 123.535C10.1228 123.505 10.1076 123.474 10.0951 123.442C10.0951 123.4 10.0951 123.471 10.0951 123.442C10.0951 123.413 10.0951 123.413 10.0951 123.4C10.0951 123.387 10.0951 123.374 10.0951 123.361C10.0951 123.348 10.0951 123.39 10.0951 123.361L10.1146 123.316C10.1146 123.3 10.1567 123.274 10.1146 123.316L10.1535 123.28C10.1275 123.306 10.134 123.28 10.1535 123.28L9.74176 123.313C9.81869 123.334 9.89445 123.36 9.96871 123.39C10.04 123.416 9.93305 123.371 9.96871 123.39L10.0141 123.413L10.1016 123.458L10.1308 123.477C10.1827 123.506 10.1016 123.451 10.1308 123.477L10.1794 123.519C10.1794 123.519 10.2151 123.548 10.2151 123.558C10.2151 123.567 10.1956 123.526 10.2151 123.558C10.2192 123.568 10.2247 123.578 10.2313 123.587V123.613C10.2313 123.642 10.2086 123.593 10.2313 123.593C10.233 123.608 10.233 123.623 10.2313 123.638V123.664C10.2313 123.693 10.2151 123.638 10.2313 123.645C10.2256 123.661 10.2192 123.678 10.2118 123.693L10.1826 123.745C10.1826 123.771 10.2183 123.706 10.1826 123.745C10.1505 123.781 10.1158 123.814 10.0789 123.845L10.0562 123.861C10.0173 123.897 10.0951 123.838 10.0562 123.861L9.99463 123.903C9.94276 123.935 9.89089 123.964 9.83254 123.993L9.76447 124.026L9.72557 124.045C9.66722 124.071 9.77096 124.026 9.72557 124.045L9.53752 124.119C9.40256 124.167 9.26513 124.208 9.12581 124.242V124.242H9.07072L8.96696 124.261C8.8924 124.277 8.81785 124.29 8.74005 124.3H8.62984C8.59418 124.3 8.49368 124.3 8.58769 124.3H8.36074H8.25053C8.15976 124.3 8.31214 124.3 8.22461 124.3L8.02682 124.268C7.95114 124.249 7.87179 124.252 7.79746 124.275C7.72312 124.298 7.65669 124.342 7.60541 124.4C7.5503 124.513 7.67348 124.597 7.8453 124.639C8.16622 124.698 8.4948 124.705 8.81785 124.658C9.15573 124.619 9.4883 124.543 9.80983 124.432C10.3739 124.235 10.9737 123.9 10.844 123.493C10.7694 123.251 10.4128 123.077 10.0465 122.967C9.91056 122.925 9.76333 122.935 9.63479 122.996C9.18094 123.258 9.31061 123.829 9.91359 123.99C10.1016 124.039 10.3577 124.006 10.4128 123.877C10.562 123.506 10.121 123.035 9.3657 123.064C9.3045 123.06 9.24325 123.071 9.18691 123.095C9.13057 123.119 9.08074 123.156 9.04151 123.203C8.93129 123.409 9.00263 123.651 9.30412 123.797C9.44589 123.871 9.60515 123.907 9.76535 123.899C9.92554 123.892 10.0808 123.842 10.2151 123.755C10.4128 123.561 10.2151 123.261 9.92008 123.132C9.58906 122.994 9.21843 122.982 8.87942 123.1C8.50013 123.238 8.33803 123.496 8.47095 123.745C8.51634 123.832 8.64277 123.874 8.79513 123.884C9.11932 123.906 9.4435 123.839 9.52454 123.648C9.57641 123.519 9.47269 123.364 9.29439 123.277C8.74003 123.003 8.2181 123.535 8.36074 123.813C8.56173 124.206 9.59913 124.032 9.7904 123.722C9.98166 123.413 9.56347 123.18 9.22632 123.022C8.71179 122.759 8.13276 122.647 7.55677 122.7C7.3882 122.725 7.26826 122.835 7.32337 122.932C7.3552 123.005 7.39663 123.073 7.44656 123.135C7.54781 123.221 7.66594 123.285 7.79342 123.322C8.08194 123.429 8.40938 123.225 8.25053 123.067C8.15627 122.961 8.05441 122.862 7.94578 122.771C7.88025 122.724 7.80475 122.694 7.72535 122.682C7.64595 122.671 7.5649 122.678 7.48871 122.703C7.33958 122.751 7.26826 122.874 7.36876 122.958C7.46476 123.039 7.55468 123.128 7.63782 123.222C7.66699 123.254 7.69617 123.284 7.72211 123.316L7.76101 123.364C7.74156 123.342 7.76101 123.364 7.76101 123.364C7.78067 123.392 7.79803 123.421 7.81289 123.451C7.82659 123.474 7.83334 123.499 7.83232 123.526C7.83393 123.543 7.83393 123.56 7.83232 123.577C7.83232 123.577 7.83232 123.635 7.83232 123.606C7.82029 123.647 7.80398 123.685 7.78368 123.722C7.74802 123.797 7.69619 123.871 7.65404 123.945C7.6002 124.013 7.56573 124.094 7.55432 124.18C7.54291 124.265 7.55495 124.353 7.58918 124.432C7.6267 124.481 7.67625 124.52 7.73303 124.544C7.78981 124.568 7.85191 124.577 7.91337 124.571C8.6136 124.529 9.75796 124.226 9.32355 123.729C9.25765 123.682 9.1816 123.652 9.10159 123.64C9.02157 123.628 8.93989 123.635 8.86324 123.661C8.35103 123.813 7.81937 124.003 7.56651 124.306C7.4887 124.4 7.51788 124.516 7.6897 124.571C8.35929 124.756 9.07257 124.706 9.70935 124.429C10.2151 124.206 10.5847 123.829 10.4128 123.461C10.2086 123.013 9.32355 122.816 8.59739 122.754C8.22271 122.685 7.83606 122.723 7.48222 122.864C7.15803 123.067 7.30715 123.432 7.59567 123.622C7.77723 123.72 7.98251 123.764 8.18824 123.751C8.39397 123.738 8.59187 123.668 8.75948 123.548C9.05773 123.306 8.9216 122.983 8.54555 122.8C8.47124 122.764 8.38979 122.745 8.30728 122.745C8.22476 122.745 8.14327 122.764 8.06897 122.8C7.8967 122.861 7.74846 122.976 7.64542 123.126C7.54237 123.277 7.48981 123.456 7.4952 123.638C7.52482 123.808 7.60593 123.965 7.72765 124.087C7.84937 124.209 8.00585 124.291 8.17597 124.322C8.43313 124.379 8.69979 124.378 8.95623 124.318C9.21268 124.258 9.45231 124.142 9.65747 123.977C9.90385 123.793 10.0757 123.558 9.98165 123.332C9.79038 122.942 8.94104 122.78 8.29916 122.864C8.15712 122.869 8.01763 122.903 7.88974 122.965C7.76185 123.026 7.64841 123.114 7.55677 123.222C7.41737 123.455 7.60214 123.716 7.82258 123.909C8.1056 124.162 8.47724 124.293 8.85675 124.274C9.18431 124.267 9.49702 124.137 9.73202 123.909C9.82138 123.831 9.88581 123.728 9.91746 123.613C9.94912 123.499 9.94665 123.377 9.91034 123.264C9.82425 123.12 9.70491 122.999 9.56226 122.91C9.41961 122.822 9.25775 122.768 9.09015 122.754C8.63545 122.649 8.15958 122.679 7.72211 122.841C7.66356 122.86 7.61006 122.892 7.5656 122.935C7.52114 122.977 7.48687 123.029 7.46536 123.086C7.44385 123.144 7.43565 123.205 7.44138 123.266C7.4471 123.327 7.46658 123.386 7.4984 123.438C7.72209 123.848 8.52608 124.29 9.34627 124.135C9.55311 124.1 9.75058 124.023 9.92657 123.909C10.0206 123.848 10.0692 123.787 10.027 123.703C10.0052 123.668 9.97904 123.635 9.94924 123.606C9.90056 123.554 9.8486 123.504 9.79364 123.458C9.44972 123.163 9.05405 122.935 8.62659 122.783C8.39743 122.699 8.15435 122.659 7.91012 122.664C7.76662 122.654 7.62309 122.682 7.49413 122.746C7.36517 122.809 7.2554 122.906 7.176 123.025C7.0966 123.144 7.05041 123.282 7.04212 123.425C7.03384 123.568 7.06378 123.711 7.12887 123.839C7.19606 123.976 7.30334 124.091 7.43683 124.168C7.51656 124.223 7.61165 124.253 7.70913 124.253C7.80661 124.253 7.90174 124.223 7.98147 124.168C8.27972 123.784 8.05925 123.374 7.79666 123.006C7.71719 122.928 7.61003 122.884 7.4984 122.884C7.38677 122.884 7.27965 122.928 7.20018 123.006C6.8533 123.471 7.20015 123.974 7.17422 124.445H7.76101C7.76101 123.897 7.52436 123.355 7.56326 122.803C7.56326 122.722 7.4336 122.651 7.29096 122.651C7.14832 122.651 7.0251 122.722 7.01862 122.803L7.02186 122.8Z" fill="#001B93"/>
<path d="M4.14626 122.845C4.26247 123.065 4.31837 123.312 4.30835 123.561C4.30516 123.814 4.28892 124.068 4.25972 124.319L4.80112 124.193L4.75248 124.164C4.71034 124.142 4.77517 124.19 4.75248 124.164C4.72979 124.139 4.70387 124.116 4.68442 124.09C4.66496 124.064 4.68442 124.09 4.68442 124.09C4.68334 124.081 4.68334 124.071 4.68442 124.061L4.6585 124.019C4.6585 123.99 4.63253 123.958 4.6228 123.929C4.61307 123.9 4.6228 123.874 4.6228 123.913V123.861V123.758C4.61794 123.684 4.61794 123.609 4.6228 123.535C4.65198 123.261 4.74278 122.99 4.77844 122.716H4.156C4.17597 122.984 4.1651 123.253 4.12359 123.519C4.12023 123.553 4.1137 123.586 4.10412 123.619C4.10412 123.635 4.10412 123.619 4.10412 123.642L4.08469 123.7C4.06612 123.769 4.04117 123.836 4.01013 123.9C3.9801 123.964 3.94427 124.026 3.90312 124.084C3.90312 124.061 3.90312 124.084 3.90312 124.084L3.87071 124.122C3.84204 124.152 3.81172 124.18 3.77993 124.206H4.34725C4.32197 124.187 4.29815 124.165 4.27594 124.142V124.122C4.27594 124.145 4.27594 124.1 4.27594 124.1C4.24594 124.051 4.22303 123.997 4.20788 123.942C4.20788 123.942 4.20788 123.897 4.20788 123.942C4.2094 123.93 4.2094 123.918 4.20788 123.906V123.813C4.20301 123.748 4.20301 123.684 4.20788 123.619C4.20788 123.384 4.2727 123.151 4.2727 122.916H3.62433C3.64475 123.112 3.62492 123.311 3.566 123.5C3.53161 123.598 3.48358 123.692 3.42334 123.777C3.35775 123.86 3.27891 123.932 3.18994 123.99H3.54653L3.51088 123.971L3.48816 123.955L3.44602 123.919C3.42494 123.9 3.40544 123.88 3.38769 123.858C3.38769 123.842 3.38769 123.858 3.38769 123.858L3.36822 123.826C3.34268 123.782 3.321 123.737 3.30339 123.69C3.30339 123.69 3.30339 123.661 3.30339 123.648C3.30339 123.635 3.30339 123.664 3.30339 123.648V123.571C3.29854 123.521 3.29854 123.472 3.30339 123.422C3.30522 123.411 3.30522 123.399 3.30339 123.387C3.30339 123.406 3.30339 123.406 3.30339 123.387C3.3117 123.363 3.32143 123.339 3.33256 123.316C3.34206 123.294 3.35287 123.272 3.36497 123.251L3.38769 123.216C3.38769 123.2 3.42011 123.18 3.43957 123.164L3.47522 123.132C3.50116 123.109 3.42335 123.167 3.47522 123.132L2.9079 123C2.9079 123.022 2.9079 123.042 2.9079 123.064C2.9079 123.087 2.9079 123.038 2.9079 123.064C2.90876 123.076 2.90876 123.088 2.9079 123.1C2.8987 123.126 2.88675 123.15 2.87225 123.174C2.87225 123.174 2.85277 123.203 2.84629 123.219C2.8398 123.235 2.84629 123.235 2.84629 123.219C2.8022 123.273 2.75456 123.323 2.70366 123.371L2.61937 123.448L2.56425 123.49C2.52859 123.519 2.56427 123.49 2.54482 123.49C2.47685 123.539 2.40533 123.584 2.33085 123.622C2.29329 123.644 2.25431 123.664 2.21415 123.68C2.21415 123.68 2.14931 123.709 2.21415 123.68L2.15578 123.703L2.03258 123.748L1.97101 123.764C1.91266 123.784 2.00018 123.764 1.97101 123.764L1.84457 123.787H1.783C1.83487 123.787 1.81866 123.787 1.783 123.787L2.10718 123.926C2.09777 123.917 2.091 123.906 2.08771 123.893C2.08771 123.893 2.08771 123.893 2.08771 123.893C2.08771 123.893 2.04232 123.945 2.08771 123.913C2.13309 123.88 2.14604 123.868 2.11038 123.893L2.18498 123.842C2.46054 123.664 2.03584 123.419 1.72138 123.584C1.49445 123.7 1.34208 123.845 1.46526 124.019C1.50343 124.068 1.55297 124.106 1.60951 124.131C1.66605 124.155 1.72785 124.166 1.78945 124.161C2.24463 124.142 2.68472 123.993 3.05701 123.732C3.36174 123.519 3.64703 123.242 3.62758 122.961C3.62758 122.809 3.25801 122.696 3.06026 122.829C2.93701 122.899 2.83557 123.002 2.76698 123.126C2.6984 123.25 2.66531 123.391 2.67125 123.532C2.67916 123.677 2.72642 123.817 2.80806 123.938C2.88969 124.058 3.00262 124.154 3.13481 124.216C3.20827 124.253 3.2893 124.272 3.37146 124.272C3.45362 124.272 3.53465 124.253 3.60811 124.216C3.83043 124.077 4.00711 123.876 4.1165 123.638C4.2259 123.4 4.26327 123.136 4.22406 122.877C4.22406 122.777 4.07818 122.693 3.89988 122.693C3.72158 122.693 3.5757 122.777 3.5757 122.877C3.5757 123.125 3.51411 123.371 3.50763 123.619C3.48962 123.758 3.50622 123.898 3.55599 124.029C3.60575 124.16 3.68714 124.276 3.79291 124.368C3.8763 124.425 3.97524 124.456 4.07657 124.456C4.17791 124.456 4.27684 124.425 4.36023 124.368C4.59985 124.146 4.7507 123.846 4.78489 123.522C4.82316 123.242 4.83079 122.959 4.80761 122.677C4.80761 122.58 4.66821 122.5 4.48342 122.5C4.29864 122.5 4.18518 122.58 4.15924 122.677C4.1171 122.967 4.01335 123.258 3.99066 123.551C3.959 123.719 3.98152 123.891 4.05493 124.045C4.12834 124.199 4.24885 124.325 4.39913 124.406C4.60337 124.516 4.92757 124.432 4.94053 124.281C4.98916 123.768 5.05396 123.213 4.74275 122.719C4.70081 122.67 4.64618 122.635 4.58493 122.615C4.52368 122.596 4.45824 122.594 4.39589 122.609C4.25001 122.632 4.14951 122.722 4.1949 122.806L4.14626 122.845Z" fill="#001B93"/>
<path d="M1.47179 123.555C1.67279 123.437 1.89183 123.353 2.12015 123.306C2.17851 123.306 2.50269 123.274 2.52538 123.258C2.76528 123.093 2.35682 123.242 2.37627 123.235C2.18468 123.296 1.98671 123.335 1.78624 123.351C1.70316 123.345 1.61973 123.345 1.53665 123.351C1.64039 123.322 1.51071 123.374 1.53665 123.351C1.56258 123.329 1.79921 123.584 1.75058 123.49C1.77327 123.532 1.70521 123.619 1.72142 123.648C1.73762 123.677 1.76355 123.613 1.75707 123.613C1.75059 123.613 1.65333 123.668 1.75707 123.613C1.77862 123.598 1.80139 123.585 1.82514 123.574C1.92209 123.523 2.02291 123.48 2.12664 123.445C2.23687 123.406 2.45083 123.345 2.49622 123.332L2.71343 123.287C2.79448 123.287 2.88201 123.258 2.83662 123.287C2.91119 123.267 2.85932 123.287 2.83662 123.287C2.76577 123.242 2.69853 123.191 2.63559 123.135C2.66801 123.167 2.63559 123.09 2.67774 123.09C2.56643 123.122 2.458 123.163 2.35356 123.213C2.27575 123.235 1.79274 123.309 1.77005 123.332C1.74736 123.355 2.12017 123.6 2.13962 123.6C2.23389 123.568 2.32594 123.531 2.41517 123.487C2.62265 123.413 2.84309 123.345 3.06354 123.287C3.20022 123.244 3.34005 123.212 3.48174 123.19C3.67625 123.151 3.85779 123.19 3.673 123.077C3.48822 122.964 3.5498 123.035 3.54008 123.138C3.51284 123.3 3.46827 123.458 3.40715 123.609C3.33583 123.806 3.27425 124.077 2.81391 124.035C2.35357 123.993 2.30494 123.748 2.44758 123.542C2.59022 123.335 2.24334 123.148 1.91592 123.148C0.739134 123.148 -0.0550897 123.81 0.765092 124.361C1.3551 124.761 2.44108 124.813 3.28396 124.684C3.70215 124.629 3.82211 124.319 3.53359 124.155C3.35204 124.051 3.13485 123.977 2.9371 123.89C2.84309 123.845 2.76851 123.79 2.68098 123.748C2.59345 123.706 3.12188 123.687 2.45083 123.7C2.04236 123.7 2.21743 123.671 2.26281 123.784C2.29278 123.839 2.32747 123.892 2.36654 123.942C2.42489 124.039 2.46704 124.139 2.53836 124.235C2.77502 124.558 3.60166 124.526 3.65029 124.148C3.67638 123.928 3.72753 123.712 3.80268 123.503H2.71343C2.9436 123.845 2.71341 124.235 3.1316 124.552C3.40392 124.755 4.10417 124.781 4.20467 124.471C4.27926 124.151 4.26696 123.817 4.16901 123.503L3.04407 123.587C3.2094 123.91 3.3229 124.232 3.48174 124.555C3.66329 124.926 4.5807 124.826 4.62932 124.468C4.62932 124.426 4.62934 124.384 4.64555 124.345L3.55955 124.51C3.62999 124.572 3.7085 124.624 3.79295 124.665C4.24356 124.874 4.87572 124.665 4.7655 124.342C4.74072 124.271 4.70576 124.203 4.66173 124.142C4.43805 123.819 3.51413 123.835 3.53034 124.226C3.53842 124.277 3.53842 124.329 3.53034 124.381L4.10415 124.058H4.16252L4.58069 124.381V124.358C4.58069 123.945 3.46877 123.948 3.43635 124.358V124.381C3.43635 124.51 3.61787 124.668 3.85452 124.703C3.9361 124.715 4.01848 124.72 4.10091 124.719C4.42509 124.719 4.65202 124.581 4.67471 124.397C4.68279 124.345 4.68279 124.293 4.67471 124.242L3.54657 124.329C3.58771 124.392 3.61939 124.46 3.64059 124.532L4.61314 124.21L4.5645 124.187C4.24032 123.9 3.53686 124.032 3.48174 124.352C3.48174 124.39 3.48172 124.432 3.45903 124.474L4.60665 124.387C4.45104 124.064 4.31487 123.742 4.14954 123.419C3.98421 123.096 2.97925 123.132 3.02464 123.506C3.10825 123.761 3.125 124.033 3.07327 124.297L4.04582 124.152C3.92263 124.064 3.95827 123.877 3.94206 123.771C3.92299 123.616 3.87225 123.467 3.79295 123.332C3.61465 123.061 2.8204 123.009 2.7037 123.332C2.60403 123.589 2.53758 123.858 2.50595 124.132L3.56604 123.974C3.62439 124.051 3.53037 123.906 3.52065 123.893C3.51092 123.88 3.45903 123.787 3.42337 123.732C3.34481 123.601 3.24886 123.48 3.13809 123.374C2.98686 123.25 2.8055 123.167 2.61209 123.134C2.41868 123.101 2.21998 123.119 2.03586 123.187C1.57877 123.355 1.43612 123.732 1.66954 124C1.90295 124.268 2.37301 124.381 2.72313 124.587L2.97276 124.055C2.61426 124.109 2.24915 124.101 1.89324 124.032C1.5334 123.951 1.3551 123.742 1.89324 123.739L1.36158 123.348C1.00822 123.88 1.48476 124.471 2.49297 124.616C3.50118 124.761 4.26625 124.335 4.43807 123.793C4.59368 123.306 4.93407 122.361 3.46552 122.525C2.7199 122.609 1.68898 122.874 1.21892 123.213C0.920668 123.429 0.927151 123.748 1.41991 123.874C1.877 123.94 2.34349 123.894 2.77825 123.739C3.16403 123.629 3.5725 123.48 3.66651 123.229C3.76052 122.977 3.62111 122.813 3.2872 122.709C2.42812 122.451 -0.152362 123.277 0.868814 123.819C1.57553 124.197 3.20293 123.819 3.46227 123.348C3.65678 122.98 3.03112 122.683 2.41842 122.703C1.8291 122.714 1.25194 122.872 0.739133 123.161C0.317695 123.435 1.02768 123.835 1.44911 123.561L1.47179 123.555Z" fill="#001B93"/>
<path d="M3.83487 122.748C3.69395 123.163 3.65069 123.604 3.70843 124.039C3.70843 124.361 3.64358 124.761 4.22062 124.961C4.6064 125.094 5.05378 124.829 4.83333 124.616C4.81975 124.586 4.81276 124.553 4.81276 124.519C4.81276 124.486 4.81975 124.453 4.83333 124.422C4.93707 124.058 3.98073 123.984 3.93859 124.355C3.93292 124.427 3.94605 124.5 3.9767 124.566C4.00734 124.632 4.0545 124.689 4.11366 124.732C4.36652 124.961 5.02463 124.874 5.02463 124.593C5.02095 124.466 4.98163 124.342 4.91113 124.235C4.71663 123.913 3.81541 124.045 3.99371 124.377C4.03775 124.461 4.09587 124.536 4.16554 124.6L4.86254 124.297C4.65506 124.1 4.11689 124.164 4.06178 124.387C4.00667 124.61 4.51564 124.768 4.79443 124.593L4.09419 124.49V124.535C4.18496 124.816 4.9695 124.745 4.96626 124.468C4.96203 124.354 4.91585 124.246 4.83658 124.164L3.96779 124.371C4.00145 124.394 4.02528 124.429 4.03483 124.469C4.04438 124.509 4.03897 124.551 4.01963 124.587L4.9306 124.448C4.87985 124.4 4.83813 124.343 4.80741 124.281L3.97424 124.477C4.02324 124.52 4.05827 124.576 4.07476 124.639L4.17523 124.5L4.09098 124.558L4.83982 124.671C4.73504 124.431 4.67885 124.174 4.67449 123.913C4.59041 123.572 4.57717 123.217 4.63559 122.871C4.7296 122.564 3.92888 122.425 3.79597 122.738L3.83487 122.748Z" fill="#001B93"/>
<path d="M1.45882 123.361L1.60144 123.554V123.522V123.593V123.558L1.5528 123.625L1.58521 123.593L1.51066 123.648L1.53662 123.632L1.4361 123.677C1.51301 123.65 1.58204 123.605 1.63709 123.545C1.65832 123.52 1.6718 123.49 1.67584 123.458C1.67987 123.426 1.67431 123.393 1.65981 123.364C1.60411 123.294 1.53164 123.238 1.449 123.203C1.36636 123.167 1.27613 123.153 1.18647 123.161C0.984499 123.146 0.781528 123.167 0.586745 123.222L1.34532 123.464L1.32589 123.538C1.33688 123.512 1.34242 123.483 1.34216 123.454C1.34189 123.425 1.33582 123.397 1.32435 123.37C1.31287 123.344 1.29621 123.32 1.27532 123.3C1.25442 123.28 1.22973 123.265 1.2027 123.254C1.02574 123.163 0.820095 123.143 0.62889 123.199C0.540157 123.224 0.463768 123.28 0.414918 123.358C0.4 123.392 0.39636 123.43 0.404511 123.467C0.412661 123.503 0.43219 123.536 0.460309 123.561V123.561V123.29L0.632135 123.193C0.554351 123.216 0.482484 123.256 0.421408 123.309C0.399264 123.326 0.381313 123.347 0.368934 123.372C0.356555 123.396 0.350098 123.424 0.350098 123.451C0.350098 123.479 0.356555 123.506 0.368934 123.531C0.381313 123.555 0.399264 123.577 0.421408 123.593C0.542035 123.693 0.696001 123.744 0.852557 123.735C0.925404 123.733 0.998003 123.725 1.06977 123.713H1.16055H1.02763H1.19945L0.852557 123.241C0.606178 123.364 0.528374 123.6 0.771511 123.738C0.877782 123.791 0.994864 123.818 1.11354 123.818C1.23222 123.818 1.3493 123.791 1.45557 123.738C1.5431 123.687 1.60468 123.619 1.59819 123.548C1.59144 123.507 1.57498 123.468 1.55019 123.434C1.5254 123.4 1.493 123.373 1.45557 123.354L1.45882 123.361Z" fill="#001B93"/>
<path d="M8.50986 122.941C8.46809 122.855 8.43232 122.765 8.40285 122.674C8.31857 122.438 7.80637 122.419 7.52758 122.545C7.07372 122.754 7.20338 123.358 7.22931 123.645C7.27146 123.967 7.2974 124.561 8.00411 124.684C8.13012 124.714 8.26209 124.709 8.3856 124.67C8.5091 124.631 8.61939 124.559 8.70436 124.461C8.76271 124.351 9.05124 124.268 9.19063 124.193C9.37896 124.108 9.54197 123.976 9.66393 123.809C9.87789 123.451 9.55046 123.183 9.45645 122.841L9.05771 123.232C9.21656 123.2 9.3041 123.306 9.44026 123.387C9.62435 123.447 9.81708 123.476 10.0108 123.474L9.30734 123.422C9.44673 123.513 9.23927 123.725 9.19712 123.813C9.19712 123.832 9.10959 123.858 9.10959 123.871C9.10959 123.813 9.56668 124.109 9.55372 124.1C9.59262 124.126 9.46293 124.132 9.45645 124.129L9.04797 123.725C8.99935 123.755 9.00259 123.771 9.04797 123.771L9.55047 124.264C9.66437 124.173 9.73771 124.041 9.75471 123.896C9.75471 123.532 8.847 123.48 8.65897 123.813C8.6291 123.859 8.5906 123.9 8.54551 123.932C8.32831 124.142 8.60384 124.435 9.04797 124.426C9.26383 124.443 9.4804 124.403 9.67608 124.311C9.87176 124.218 10.0397 124.077 10.1632 123.9C10.2669 123.722 10.04 123.554 9.75471 123.496C8.50012 123.238 7.77072 124.522 9.15498 124.516C10.4225 124.516 10.8245 123.422 10.1275 122.961C9.90839 122.854 9.65649 122.836 9.42404 122.909C8.941 123.07 8.71733 123.387 8.91184 123.69C9.10635 123.993 9.80981 124.126 10.2701 123.874C11.2232 123.351 9.92326 122.396 8.75945 122.619C8.43526 122.677 8.31533 122.828 8.36395 123.009C8.42879 123.254 8.79514 123.506 8.42557 123.716C8.056 123.926 7.74801 124.022 7.60213 124.29L8.30238 124.067L8.53578 124.168L8.51306 124.145C8.51306 124.164 8.51306 124.145 8.51306 124.113C8.51306 124.08 8.4612 124.003 8.44175 123.948C8.39679 123.804 8.37064 123.654 8.36395 123.503C8.3477 123.357 8.34122 123.211 8.34452 123.064C8.34452 123.012 8.36395 122.958 8.36395 122.903C8.36395 122.903 8.39637 122.874 8.36395 122.903H7.4368C7.50163 122.987 7.56646 123.067 7.62805 123.151C7.8485 123.438 8.62331 123.229 8.50012 122.945L8.50986 122.941Z" fill="#001B93"/>
<path d="M5.19679 0.590513L5.25192 0.564701L5.1903 0.590513C5.29465 0.549206 5.40343 0.519975 5.51449 0.503396H5.44642L5.63768 0.484037H5.56961H5.64417C5.67542 0.487208 5.70694 0.487208 5.73819 0.484037C5.78548 0.469246 5.82874 0.443858 5.86463 0.409826L5.56312 0.371107C5.56312 0.371107 5.56312 0.39692 5.56312 0.371107C5.56312 0.345295 5.56312 0.348521 5.56312 0.371107V0.319482V0.267858C5.56281 0.273231 5.56281 0.278617 5.56312 0.28399L5.58259 0.232365V0.251725L5.615 0.209779C5.5923 0.233537 5.57523 0.262057 5.56506 0.293242C5.55489 0.324428 5.55188 0.357485 5.55624 0.389985C5.56059 0.422485 5.5722 0.4536 5.59023 0.481043C5.60826 0.508487 5.63223 0.531561 5.66039 0.548568C5.68928 0.566318 5.72194 0.577081 5.75576 0.579993C5.78959 0.582905 5.82361 0.577885 5.85513 0.565336C5.88665 0.552786 5.91481 0.533057 5.93729 0.507731C5.95976 0.482405 5.97596 0.452188 5.98458 0.419505C6.00612 0.360631 6.00622 0.296102 5.98489 0.237148C5.96357 0.178194 5.92218 0.128548 5.86787 0.0968498L5.96186 0.264631C5.96402 0.204349 5.94567 0.145109 5.90978 0.096504C5.87389 0.0478992 5.82256 0.0127769 5.76411 -0.0031732H5.69605C5.64764 -0.00968445 5.59859 -0.00968445 5.55018 -0.0031732L5.39454 0.016186C5.24614 0.0390977 5.10196 0.0836738 4.96664 0.148475C4.90868 0.183445 4.86592 0.238668 4.84669 0.30335C4.82896 0.371919 4.83823 0.44464 4.87261 0.506623C4.90895 0.565327 4.96664 0.607817 5.03367 0.625247C5.1007 0.642677 5.1719 0.633703 5.23245 0.600193L5.19679 0.590513Z" fill="#001B93"/>
<path d="M5.76379 1.07759C7.41388 0.916266 9.0737 1.10663 10.7141 1.27119C11.5342 1.35185 12.3577 1.43251 13.1811 1.46478C14.0629 1.50027 14.9511 1.48737 15.8329 1.48414C19.4897 1.46155 23.1465 1.31313 26.8 1.43252C28.9493 1.5035 31.0987 1.67128 33.235 1.91005C35.6511 2.15835 38.0485 2.56143 40.4124 3.11678C41.4937 3.36989 42.5571 3.69324 43.5959 4.08474C44.4456 4.3972 45.2484 4.82383 45.9819 5.35278C46.1228 5.46087 46.2581 5.5761 46.3871 5.69802L46.2996 5.4883C46.2866 6.24546 46.2769 6.99832 46.2704 7.74689C46.2467 9.63765 46.2272 11.5295 46.2121 13.4224C46.1926 15.8853 46.1786 18.3472 46.1699 20.808C46.1613 23.2688 46.1678 25.7478 46.1894 28.2452C46.1894 30.1585 46.2153 32.0751 46.3093 33.9852C46.3093 34.1562 46.3093 34.3305 46.3353 34.5015C46.3547 34.8758 46.9383 34.8758 46.9188 34.5015C46.8345 32.8366 46.8151 31.1652 46.7956 29.4971C46.7697 27.2708 46.7632 25.0412 46.7632 22.8149C46.7632 20.4488 46.7729 18.0944 46.7924 15.752C46.8053 13.7364 46.8226 11.7177 46.8442 9.69573C46.8442 8.46641 46.8734 7.23386 46.8896 6.00454C46.8896 5.83031 46.9123 5.6464 46.8896 5.47216C46.8701 5.23985 46.5914 5.06562 46.4195 4.93333C46.2349 4.7863 46.0422 4.64951 45.8425 4.52356C45.4171 4.25461 44.9717 4.01838 44.5101 3.81694C42.2246 2.7909 39.7187 2.26174 37.2581 1.84551C34.7976 1.42929 32.2268 1.14535 29.695 0.967891C26.4045 0.738806 23.1043 0.764618 19.8074 0.822696C17.8007 0.858188 15.794 0.900133 13.7873 0.877547C11.9524 0.877547 10.137 0.596837 8.30541 0.496814C7.45663 0.438715 6.60451 0.448426 5.7573 0.525853C5.43311 0.561345 5.43311 1.08405 5.7573 1.05178L5.76379 1.07759Z" fill="#001B93"/>
<path d="M6.59408 33.2981C7.07135 33.1585 7.57888 33.1585 8.05615 33.2981C8.59105 33.4175 9.11299 33.5949 9.64465 33.7434C10.8883 34.0569 12.1677 34.2077 13.4506 34.1918C14.8186 34.1918 16.1834 34.0466 17.545 33.9144C18.9065 33.7821 20.294 33.6433 21.6686 33.5207C24.4333 33.2579 27.2099 33.1383 29.9871 33.1626C32.7651 33.1924 35.5383 33.4004 38.2894 33.7853C39.5862 33.9724 40.8829 34.2241 42.1796 34.4661C43.4304 34.7345 44.706 34.8718 45.9855 34.8759C46.1314 34.8759 46.2805 34.8759 46.4264 34.8533C46.544 34.8573 46.6616 34.8464 46.7765 34.821C46.8394 34.8007 46.8946 34.7616 46.9346 34.7091C46.9746 34.6566 46.9975 34.5932 47.0002 34.5274C47.0011 34.4639 46.9831 34.4015 46.9485 34.3481C46.9139 34.2948 46.8642 34.2527 46.8057 34.2273L46.6825 34.166C46.6631 34.166 46.5723 34.0854 46.6177 34.1305C46.3518 33.8595 45.9336 34.2757 46.1995 34.5468C46.255 34.5972 46.3159 34.6416 46.381 34.6791L46.4718 34.7339C46.5269 34.7565 46.4718 34.7339 46.4718 34.7339L46.394 34.4371L46.6079 34.2241C46.6987 34.1983 46.608 34.2241 46.5561 34.2241L46.3194 34.2402C46.1605 34.2402 45.9952 34.2402 45.8396 34.2564C45.5154 34.2564 45.2107 34.2564 44.8963 34.2209C44.2479 34.1725 43.6384 34.0821 43.0128 33.9757C41.716 33.7563 40.4388 33.4788 39.1453 33.2787C36.4085 32.8574 33.6472 32.6127 30.8786 32.5463C28.0965 32.4828 25.313 32.5711 22.5406 32.8109C21.1693 32.9238 19.8013 33.0593 18.4332 33.1916C17.0652 33.3239 15.6485 33.4949 14.2513 33.5498C12.9366 33.6141 11.619 33.5242 10.3254 33.282C9.27508 33.0722 8.2539 32.5786 7.1614 32.6173C6.91467 32.6206 6.67027 32.6653 6.43848 32.7496C6.1143 32.8786 6.24396 33.4142 6.58759 33.2916L6.59408 33.2981Z" fill="#001B93"/>
</g>
<defs>
<clipPath id="clip0_29_1436">
<rect width="47" height="125" fill="white"/>
</clipPath>
</defs>
</svg>
