<svg width="823" height="846" viewBox="0 0 823 846" fill="none" xmlns="http://www.w3.org/2000/svg">
<path d="M168.695 816.669C168.118 815.426 167.423 814.333 166.61 813.392C165.808 812.435 164.89 811.649 163.856 811.032C162.834 810.413 161.705 809.983 160.469 809.741C159.233 809.498 157.904 809.462 156.483 809.631C154.153 809.908 152.106 810.762 150.341 812.193C148.577 813.624 147.271 815.577 146.423 818.054C145.576 820.531 145.355 823.473 145.76 826.878C146.165 830.284 147.077 833.09 148.496 835.297C149.914 837.504 151.668 839.094 153.757 840.066C155.847 841.037 158.107 841.378 160.54 841.089C162.793 840.82 164.72 840.104 166.322 838.94C167.934 837.761 169.115 836.231 169.865 834.35C170.626 832.454 170.864 830.303 170.577 827.896L172.073 828.03L160.243 829.438L159.74 825.214L174.719 823.43L175.222 827.655C175.608 830.894 175.252 833.793 174.154 836.352C173.07 838.909 171.396 840.991 169.133 842.597C166.882 844.19 164.194 845.172 161.07 845.544C157.588 845.959 154.431 845.504 151.598 844.179C148.779 842.853 146.453 840.766 144.621 837.92C142.802 835.073 141.645 831.575 141.151 827.427C140.781 824.316 140.864 821.469 141.4 818.886C141.948 816.289 142.885 814.022 144.213 812.085C145.54 810.148 147.198 808.588 149.187 807.403C151.175 806.218 153.43 805.476 155.952 805.176C158.026 804.929 159.997 805.012 161.864 805.426C163.742 805.826 165.453 806.511 166.997 807.483C168.553 808.441 169.898 809.65 171.032 811.112C172.166 812.561 173.025 814.218 173.611 816.083L168.695 816.669Z" fill="#FDFFFE"/>
<path d="M451.21 417.87C451.21 417.87 456.75 395.87 474.06 404.28C486.87 410.54 515.36 422.38 521.9 432.06C528.9 442.41 528.06 472.18 529.78 488.2C529.78 488.2 530.98 492.95 529.1 496.55C526.79 500.96 519.92 504.17 510.58 499.65C510.58 499.65 508.07 482.31 504 454.15C503.17 450.105 501.11 446.417 498.1 443.59C474.66 424.18 451.21 417.87 451.21 417.87Z" fill="black" stroke="black" stroke-width="5" stroke-linecap="round" stroke-linejoin="round"/>
<path d="M507.93 486.56C515.04 485.41 524.76 495.36 533.42 474.01C533.42 474.01 565.85 469.47 604.82 483.95C617.61 489.31 621 492.8 620.92 495.28C620.67 502.71 606.06 511.41 592.6 515.28C560.08 524.6 512.05 524.41 509.39 514.71C509.39 514.71 502.73 496.94 501.96 494.85C501.19 492.76 504.33 487.1 507.93 486.56Z" fill="#F7EE79" stroke="black" stroke-width="4" stroke-linecap="round" stroke-linejoin="round"/>
<path d="M504.13 500.56C517.38 502.56 549.07 505.56 580.87 495.36" stroke="black" stroke-width="4" stroke-linecap="round" stroke-linejoin="round"/>
<path d="M585.85 478.12C582.398 483.199 580.647 489.242 580.85 495.38C580.91 501.22 582.41 508.38 586.51 516.82" stroke="black" stroke-width="4" stroke-linecap="round" stroke-linejoin="round"/>
<path d="M534.89 490.02C534.89 490.02 530.63 481.37 539.96 473.44" stroke="black" stroke-width="4" stroke-linecap="round" stroke-linejoin="round"/>
<path d="M543.82 489.7C543.82 489.7 539.63 481.19 548.67 473.31" stroke="black" stroke-width="4" stroke-linecap="round" stroke-linejoin="round"/>
<path d="M552.76 489.38C552.76 489.38 548.76 481.38 556.87 473.66" stroke="black" stroke-width="4" stroke-linecap="round" stroke-linejoin="round"/>
<path d="M210.33 351.82C210.33 351.82 194.23 297.82 311.55 326.98V390.1C311.55 413.85 328.33 433.3 349.4 433.97C375.4 434.8 395.04 434.89 419.21 436.07C456.64 437.89 464.26 476.07 461.08 540.84H226.33L210.33 351.82Z" fill="#736845" stroke="black" stroke-width="5" stroke-miterlimit="10"/>
<path d="M644.481 445.444L581.088 369.168C579.147 366.832 575.679 366.512 573.343 368.454L570.128 371.126C567.792 373.067 567.472 376.535 569.414 378.871L632.807 455.147C634.748 457.483 638.216 457.803 640.552 455.861L643.767 453.189C646.103 451.248 646.423 447.78 644.481 445.444Z" fill="black" stroke="black" stroke-width="5" stroke-linecap="round" stroke-linejoin="round"/>
<path d="M597.296 338.185L543.492 382.902C538.039 387.434 537.292 395.53 541.825 400.983L541.831 400.991C546.364 406.445 554.459 407.192 559.913 402.659L613.717 357.943C619.17 353.41 619.917 345.315 615.384 339.861L615.378 339.853C610.845 334.399 602.75 333.653 597.296 338.185Z" fill="#999999" stroke="black" stroke-width="5" stroke-linecap="round" stroke-linejoin="round"/>
<path d="M243.25 72.34L262.25 69.34L208.25 395.34L191.25 397.34L243.25 72.34Z" fill="#E6E6E6" stroke="black" stroke-width="5" stroke-miterlimit="10"/>
<path d="M131.97 391.17L85.97 394.95C82.5359 395.226 79.1325 394.128 76.5074 391.897C73.8824 389.666 72.2504 386.484 71.97 383.05L66.88 321.3C66.7362 319.595 66.9306 317.878 67.4518 316.248C67.9731 314.618 68.811 313.107 69.9175 311.802C71.024 310.497 72.3774 309.423 73.8999 308.641C75.4225 307.86 77.0843 307.387 78.79 307.25L84.34 306.79L69.34 236.04L67.4 227.3C67.3324 227.001 67.1969 226.721 67.004 226.483C66.8112 226.245 66.5661 226.054 66.2877 225.925C66.0094 225.797 65.7052 225.734 65.3987 225.742C65.0921 225.749 64.7915 225.828 64.52 225.97C55.1 231.06 19.88 249.15 13.93 238.6C7.03999 226.41 13.62 203.33 24.79 203.97C32.16 204.41 47.79 204.63 62.1 209.81C64.9985 210.853 67.5807 212.623 69.5994 214.95C71.6182 217.277 73.006 220.083 73.63 223.1L76 234.68L90.65 306.27L103.39 305.27L89.24 191.64L88.03 182.77C87.9886 182.465 87.8773 182.173 87.7045 181.917C87.5318 181.662 87.3024 181.45 87.0342 181.298C86.7661 181.146 86.4664 181.058 86.1586 181.041C85.8508 181.024 85.5433 181.079 85.26 181.2C75.45 185.49 38.86 200.58 33.8 189.58C27.95 176.85 36.43 154.41 47.5 155.97C54.81 156.97 70.38 158.54 84.2 164.89C87.0017 166.172 89.4274 168.152 91.2449 170.64C93.0623 173.128 94.2107 176.041 94.58 179.1L95.98 190.83L109.55 304.71L124.74 303.46C128.176 303.184 131.581 304.283 134.206 306.516C136.831 308.75 138.462 311.934 138.74 315.37L143.83 377.12C143.974 378.821 143.781 380.534 143.263 382.161C142.745 383.788 141.912 385.297 140.81 386.602C139.709 387.906 138.361 388.981 136.845 389.765C135.328 390.549 133.671 391.026 131.97 391.17Z" fill="#808080" stroke="black" stroke-width="3" stroke-linecap="round" stroke-linejoin="round"/>
<path d="M23.5201 588.91C21.9652 589.883 20.8362 591.409 20.3601 593.18C17.6301 603.33 12.5301 637 66.6201 634.3C75.9601 633.84 206.26 633.3 206.26 633.3L776.4 634.3H777.56C795.07 634.3 807.41 616.78 801.08 600.45C800.85 599.829 800.58 599.225 800.27 598.64C788.84 578.12 761.77 537.57 725.27 535.34C679.93 532.56 593.54 581.98 580.83 589.41C579.785 590.025 578.602 590.369 577.39 590.41L422.17 595.32C421.565 595.339 420.961 595.282 420.37 595.15C403.6 591.43 155.24 536.45 126.26 539.35C99.3301 542.03 36.2701 580.9 23.5201 588.91Z" fill="#666666" stroke="black" stroke-width="5" stroke-miterlimit="10"/>
<path d="M609.25 78.34L590.25 75.34L667.25 393.34L684.25 395.34L609.25 78.34Z" fill="#CCCCCC" stroke="black" stroke-width="5" stroke-miterlimit="10"/>
<path d="M668.98 87.6199C665.015 89.5212 660.656 90.4534 656.26 90.3399C592.9 89.8799 455.8 83.1699 392.26 84.3399C284.16 86.3399 173.15 102.91 153.73 86.7499C168.73 71.4099 224.67 45.3499 432.29 50.3399C575.53 53.7899 640.22 71.0099 668.98 87.6199Z" fill="#A94B5A" stroke="black" stroke-width="5" stroke-linecap="round" stroke-linejoin="round"/>
<path d="M199.25 62.34L218.25 53.34L165.25 376.34L148.25 378.34L199.25 62.34Z" fill="#CCCCCC" stroke="black" stroke-width="5" stroke-miterlimit="10"/>
<path d="M572.25 49.34L553.25 46.34L639.25 401.34L656.25 403.34L572.25 49.34Z" fill="#CCCCCC" stroke="black" stroke-width="5" stroke-miterlimit="10"/>
<path d="M680.38 75.34C678.221 80.6971 674.162 85.0695 668.98 87.62C640.22 71.01 575.53 53.79 432.33 50.34C224.71 45.34 168.77 71.41 153.77 86.75C153.6 86.62 140.82 79.08 146.3 61.34C153.81 36.97 198.3 0.229975 383.79 2.83998C383.75 2.83998 697.5 -6.66003 680.38 75.34Z" fill="#FF758C" stroke="black" stroke-width="5" stroke-linecap="round" stroke-linejoin="round"/>
<path d="M593.65 592.34C593.39 592.99 593.26 593.34 593.26 593.34L592.88 592.34H593.65Z" fill="#FCE9C8" stroke="black" stroke-width="5" stroke-miterlimit="10"/>
<path d="M802.26 600.34C802.26 600.34 798.26 535.34 709.26 527.34C656.72 522.62 625.79 546.47 609.26 566.81C602.893 574.551 597.639 583.144 593.65 592.34H343.26V580.08L280.26 571.34L36.26 513.34C36.26 513.34 39.05 485.15 42.26 452.34C46.26 411.13 50.26 363.34 85.26 357.34C142.26 347.34 253.26 331.34 282.26 413.34C290.48 436.56 331.87 500.2 352.33 526.82C354.842 530.089 358.079 532.73 361.785 534.535C365.492 536.34 369.567 537.259 373.69 537.22L558.69 535.46C562.721 535.418 566.685 534.418 570.254 532.544C573.823 530.67 576.896 527.974 579.22 524.68C595.57 501.56 630.33 444.76 620.51 391.77C620.766 388.488 622.071 385.376 624.232 382.892C626.392 380.409 629.295 378.687 632.51 377.98C655.96 372.85 712.39 370.27 765.29 442.34C834.26 536.34 802.26 600.34 802.26 600.34Z" fill="#FF758C" stroke="black" stroke-width="5" stroke-miterlimit="10"/>
<path d="M223.54 612.38L616.3 613.29C619.364 613.308 622.368 612.446 624.956 610.806C627.545 609.166 629.607 606.818 630.9 604.04C639.18 586.04 663.08 548.52 717.26 552.34C717.26 552.34 753.26 553.34 775.26 581.34C782.26 590.27 788.26 602.34 793.91 608.88C794.447 609.502 795.103 610.009 795.84 610.371C796.577 610.734 797.38 610.944 798.2 610.99C803.061 611.086 807.918 610.667 812.69 609.74C814.942 609.332 816.97 608.12 818.394 606.327C819.818 604.535 820.542 602.286 820.43 600C819.69 584.69 817.54 552.87 812.26 548.34C806.26 546.34 807.26 554.34 798.26 534.34C789.69 515.34 742.26 488.34 688.26 501.34C634.26 514.34 614.26 537.34 586.26 564.34C558.26 591.34 346.26 579.34 281.26 564.34C216.26 549.34 157.26 515.34 36.26 509.34C36.26 509.34 11.26 506.49 2.75996 592.41C2.75996 592.41 0.479971 606.64 9.53997 610.61C11.72 611.61 32.86 610.91 32.86 610.91L49 610.43C49.9392 610.406 50.8512 610.11 51.6252 609.577C52.3992 609.044 53.0019 608.299 53.36 607.43C58.41 595.24 81.82 549.12 145.26 554.33C145.26 554.33 189.35 559.87 212.06 605.25C213.129 607.382 214.767 609.177 216.793 610.436C218.82 611.694 221.155 612.367 223.54 612.38Z" fill="#F2F2F2" stroke="black" stroke-width="5" stroke-miterlimit="10"/>
<path d="M101.95 420.84L104.66 407.1L104.3 407.46C101.795 409.958 98.4024 411.361 94.865 411.361C91.3276 411.361 87.9345 409.958 85.43 407.46C82.9367 404.953 81.5371 401.561 81.5371 398.025C81.5371 394.489 82.9367 391.097 85.43 388.59L107.64 366.39L129.85 388.56C132.352 391.062 133.758 394.456 133.758 397.995C133.758 401.534 132.352 404.928 129.85 407.43C127.348 409.932 123.954 411.338 120.415 411.338C116.876 411.338 113.482 409.932 110.98 407.43L110.38 406.83L112.59 420.83L101.95 420.84Z" fill="#006837"/>
<path d="M107.64 367.8L129.14 389.3C131.406 391.624 132.665 394.747 132.644 397.993C132.624 401.238 131.325 404.345 129.03 406.64C126.735 408.935 123.628 410.234 120.383 410.254C117.137 410.275 114.014 409.016 111.69 406.75L108.91 403.98L111.42 419.84H103.17L106.33 404.07L103.65 406.75C101.336 409.065 98.197 410.367 94.9235 410.368C91.6501 410.368 88.5103 409.069 86.195 406.755C83.8796 404.441 82.5784 401.302 82.5774 398.029C82.5765 394.755 83.876 391.615 86.19 389.3L90.24 385.3L107.69 367.85M107.69 365.03L106.28 366.44L88.82 383.88L84.82 387.93C82.2989 390.473 80.8196 393.866 80.6725 397.444C80.5255 401.022 81.7213 404.525 84.0252 407.266C86.3291 410.007 89.5746 411.788 93.1243 412.259C96.674 412.729 100.271 411.856 103.21 409.81L101.3 419.5L100.83 421.89H113.83L113.47 419.58L111.88 409.58C114.645 411.645 118.06 412.647 121.502 412.403C124.945 412.159 128.184 410.685 130.63 408.25C133.31 405.554 134.815 401.907 134.815 398.105C134.815 394.303 133.31 390.656 130.63 387.96L109.13 366.47L107.71 365.06L107.69 365.03Z" fill="white"/>
<path d="M106.221 401.837C104.765 401.837 103.54 401.578 102.546 401.06C101.552 400.556 100.754 399.884 100.152 399.044C99.5642 398.204 99.1372 397.287 98.8712 396.293C98.6052 395.299 98.4722 394.312 98.4722 393.332C98.4722 392.17 98.6612 391.022 99.0392 389.888C99.4172 388.754 99.9842 387.725 100.74 386.801C101.51 385.877 102.462 385.135 103.596 384.575C104.744 384.015 106.081 383.735 107.607 383.735C108.895 383.735 110.022 383.924 110.988 384.302C111.954 384.666 112.78 385.114 113.466 385.646C114.166 386.164 114.726 386.654 115.146 387.116L112.521 389.951C112.129 389.489 111.709 389.055 111.261 388.649C110.827 388.243 110.309 387.914 109.707 387.662C109.105 387.41 108.363 387.284 107.481 387.284C106.529 387.284 105.71 387.459 105.024 387.809C104.338 388.145 103.778 388.6 103.344 389.174C102.91 389.748 102.588 390.392 102.378 391.106C102.182 391.82 102.084 392.555 102.084 393.311C102.084 394.207 102.231 395.033 102.525 395.789C102.833 396.545 103.288 397.154 103.89 397.616C104.506 398.078 105.269 398.309 106.179 398.309C107.299 398.309 108.223 398.05 108.951 397.532C109.679 397.014 110.183 396.272 110.463 395.306C109.861 395.348 109.28 395.404 108.72 395.474C108.174 395.53 107.684 395.593 107.25 395.663L106.893 392.261C107.719 392.079 108.671 391.946 109.749 391.862C110.841 391.764 111.884 391.715 112.878 391.715C114.25 391.715 115.279 391.799 115.965 391.967L115.881 395.411C115.587 395.327 115.118 395.264 114.474 395.222C114.474 395.53 114.474 395.852 114.474 396.188C114.488 396.524 114.495 396.867 114.495 397.217C114.495 398.183 114.481 399.135 114.453 400.073C114.425 401.011 114.397 401.76 114.369 402.32L110.778 402.236C110.792 402.054 110.813 401.774 110.841 401.396C110.883 401.018 110.925 400.591 110.967 400.115C110.491 400.619 109.868 401.032 109.098 401.354C108.342 401.676 107.383 401.837 106.221 401.837Z" fill="white"/>
<path d="M391.26 426.34C391.26 426.34 396.99 403.95 415.64 411.64C429.46 417.34 460.13 427.92 467.26 437.34C474.86 447.4 474.26 477.34 476.26 493.34C476.26 493.34 477.59 498.06 475.6 501.75C473.17 506.29 465.83 509.84 455.76 505.75C455.76 505.75 452.89 488.44 448.26 460.36C447.304 456.304 445.041 452.674 441.82 450.03C416.48 431.56 391.26 426.34 391.26 426.34Z" fill="black" stroke="black" stroke-width="5" stroke-linecap="round" stroke-linejoin="round"/>
<path d="M454.66 496.89C461.87 496.84 469.95 508.16 481.77 488.39C481.77 488.39 514.52 488.86 550.77 509.13C562.59 516.38 565.41 520.34 564.95 522.78C563.57 530.09 547.8 536.45 533.95 538.2C500.39 542.44 452.95 534.9 451.8 524.91L447.5 504.15C447.06 501.96 451.06 496.91 454.66 496.89Z" fill="#F7EE79" stroke="black" stroke-width="4" stroke-linecap="round" stroke-linejoin="round"/>
<path d="M448.76 510.19C461.54 514.19 492.4 522.05 525.39 516.79" stroke="black" stroke-width="4" stroke-linecap="round" stroke-linejoin="round"/>
<path d="M532.95 500.5C528.776 504.997 526.13 510.699 525.39 516.79C524.55 522.58 524.95 529.86 527.7 538.85" stroke="black" stroke-width="4" stroke-linecap="round" stroke-linejoin="round"/>
<path d="M480.77 504.47C480.77 504.47 477.88 495.27 488.32 488.86" stroke="black" stroke-width="4" stroke-linecap="round" stroke-linejoin="round"/>
<path d="M489.65 505.56C489.65 505.56 486.81 496.5 496.94 490.1" stroke="black" stroke-width="4" stroke-linecap="round" stroke-linejoin="round"/>
<path d="M498.53 506.56C498.53 506.56 495.85 498 504.99 491.65" stroke="black" stroke-width="4" stroke-linecap="round" stroke-linejoin="round"/>
<path d="M505.99 329.68L502.85 352.81L552.65 368.96L561.37 347.9L505.99 329.68Z" fill="black" stroke="black" stroke-width="3" stroke-linecap="round" stroke-linejoin="round"/>
<path d="M567.2 380.13C570.55 389.49 573.76 394.84 569.76 397.84C565.76 400.84 561.32 398.94 557.02 395.34C550.24 389.67 543.6 380.34 542.4 378.34C541.547 378.68 540.627 378.817 539.712 378.739C538.797 378.661 537.913 378.37 537.13 377.89C530.13 373.84 533.49 368 533.49 368L550.49 337.26C553.02 331.96 557.49 332.97 560.49 335.01C561.89 335.96 565.49 338.13 563.36 342.78C563.29 342.93 562.76 343.92 562.15 345.08C564.54 344.58 569.22 342.6 577.78 335.87C592.06 324.63 594.78 316.82 599.78 318.82C605.35 321.05 604.78 326.14 601.17 331.15C602.98 335.01 600.45 340.56 596.91 344.58L595.85 345.99C597.47 348.92 596.36 352.88 594.11 356.4C592.23 359.84 580.03 376.56 567.2 380.13Z" fill="white" stroke="black" stroke-width="4" stroke-linecap="round" stroke-linejoin="round"/>
<path d="M567.2 380.13C566.045 380.461 564.859 380.673 563.66 380.76" stroke="black" stroke-width="4" stroke-linecap="round" stroke-linejoin="round"/>
<path d="M562.13 345.1L560.03 349.04" stroke="black" stroke-width="4" stroke-linecap="round" stroke-linejoin="round"/>
<path d="M549.97 370.56C549.97 370.56 546.84 376.71 542.4 378.4" stroke="black" stroke-width="4" stroke-linecap="round" stroke-linejoin="round"/>
<path d="M575.53 347.86C589.81 336.62 592.63 324.99 598.47 328.37C599.633 329.001 600.57 329.98 601.15 331.17" stroke="black" stroke-width="4" stroke-linecap="round" stroke-linejoin="round"/>
<path d="M574.71 357.87C585.03 348.56 588.46 340.56 593.46 343.61C594.446 344.189 595.263 345.017 595.83 346.01" stroke="black" stroke-width="4" stroke-linecap="round" stroke-linejoin="round"/>
<path d="M392.7 442.59C478.415 442.59 547.9 373.105 547.9 287.39C547.9 201.675 478.415 132.19 392.7 132.19C306.985 132.19 237.5 201.675 237.5 287.39C237.5 373.105 306.985 442.59 392.7 442.59Z" fill="white" stroke="black" stroke-width="5" stroke-miterlimit="10"/>
<path d="M278.05 366.92C278.544 368.926 279.172 370.897 279.93 372.82C280.561 374.395 281.472 375.841 282.62 377.09C283.818 378.331 285.205 379.374 286.73 380.18C288.38 381.18 290.27 381.95 292.34 383.06C290.198 384.014 287.822 384.313 285.51 383.92C283.005 383.541 280.699 382.333 278.96 380.49C277.21 378.603 276.192 376.152 276.09 373.58C275.951 371.2 276.644 368.846 278.05 366.92Z" fill="black"/>
<path d="M294.12 353.94C295.34 355.7 296.38 357.19 297.43 358.48C298.365 359.659 299.474 360.687 300.72 361.53C300.997 361.743 301.299 361.921 301.62 362.06C301.928 362.269 302.265 362.43 302.62 362.54L303.67 362.99C304.059 363.086 304.443 363.203 304.82 363.34C305.219 363.484 305.631 363.591 306.05 363.66C306.48 363.76 306.92 363.88 307.38 364.01C308.372 364.171 309.351 364.402 310.31 364.7C309.507 365.392 308.62 365.98 307.67 366.45C307.18 366.63 306.67 366.8 306.16 366.95C305.646 367.125 305.112 367.229 304.57 367.26C304.02 367.26 303.47 367.33 302.91 367.33C302.338 367.283 301.77 367.196 301.21 367.07C300.632 366.96 300.071 366.775 299.54 366.52C298.988 366.304 298.464 366.022 297.98 365.68C296.054 364.383 294.64 362.456 293.98 360.23C293.304 358.179 293.354 355.959 294.12 353.94Z" fill="black"/>
<path d="M299.33 385.84C300.139 387.546 301.1 389.176 302.2 390.71C303.114 391.953 304.205 393.055 305.44 393.98C306.783 394.873 308.202 395.646 309.68 396.29C310.49 396.64 311.35 396.93 312.24 397.36C313.215 397.697 314.161 398.111 315.07 398.6C314.118 399.117 313.112 399.526 312.07 399.82C311.019 400.028 309.951 400.135 308.88 400.14C306.584 400.061 304.36 399.326 302.47 398.02C300.561 396.604 299.192 394.579 298.59 392.28C298.001 390.118 298.266 387.812 299.33 385.84Z" fill="black"/>
<path d="M335.19 387.73C336.36 389.31 337.665 390.786 339.09 392.14C340.315 393.277 341.655 394.282 343.09 395.14C344.619 395.987 346.198 396.738 347.82 397.39C348.67 397.75 349.59 398.02 350.52 398.46C351.531 398.792 352.514 399.203 353.46 399.69C352.483 400.212 351.449 400.621 350.38 400.91C349.3 401.129 348.202 401.243 347.1 401.25C344.796 401.204 342.541 400.582 340.54 399.44C338.507 398.225 336.871 396.447 335.83 394.32C334.8 392.281 334.572 389.929 335.19 387.73Z" fill="black"/>
<path d="M349.16 415.4C350.76 416.78 352.16 417.91 353.46 418.86C354.69 419.742 356.036 420.448 357.46 420.96C357.783 421.1 358.117 421.21 358.46 421.29L358.97 421.47C359.16 421.47 359.34 421.52 359.53 421.57C359.9 421.64 360.26 421.75 360.65 421.82C361.04 421.89 361.44 421.91 361.85 421.98C362.27 422.05 362.694 422.093 363.12 422.11C363.55 422.11 364 422.19 364.47 422.25C365.476 422.273 366.478 422.37 367.47 422.54C366.787 423.328 366.008 424.027 365.15 424.62C364.7 424.87 364.24 425.11 363.76 425.34C363.292 425.585 362.795 425.77 362.28 425.89C361.76 426.02 361.28 426.13 360.7 426.23C360.148 426.287 359.594 426.304 359.04 426.28C358.76 426.295 358.48 426.295 358.2 426.28L357.37 426.13C356.806 426.033 356.253 425.879 355.72 425.67C353.591 424.893 351.785 423.425 350.59 421.5C349.398 419.704 348.891 417.539 349.16 415.4Z" fill="black"/>
<path d="M311.22 372.22C312.002 374.117 312.945 375.944 314.04 377.68C314.924 379.076 316.093 380.268 317.47 381.18C318.938 382.087 320.537 382.761 322.21 383.18C324.05 383.72 326.09 384.07 328.35 384.72C326.471 386.106 324.239 386.931 321.91 387.1C320.692 387.198 319.465 387.117 318.27 386.86C317.01 386.566 315.809 386.059 314.72 385.36C312.537 383.916 310.99 381.69 310.4 379.14C309.822 376.81 310.114 374.35 311.22 372.22Z" fill="black"/>
<path d="M322.85 403.34C323.747 405.201 324.808 406.978 326.02 408.65C327.027 410 328.287 411.141 329.73 412.01C331.3 412.816 332.957 413.436 334.67 413.86C335.61 414.07 336.6 414.25 337.67 414.53C338.778 414.689 339.871 414.937 340.94 415.27C340.003 415.942 338.998 416.512 337.94 416.97C336.834 417.347 335.696 417.622 334.54 417.79C332.03 418.043 329.503 417.53 327.29 416.32C325.031 414.97 323.35 412.833 322.57 410.32C321.807 408.037 321.907 405.554 322.85 403.34Z" fill="black"/>
<path d="M364.15 406.09C365.422 407.625 366.861 409.014 368.44 410.23C369.725 411.184 371.192 411.864 372.75 412.23C374.444 412.548 376.168 412.678 377.89 412.62C378.83 412.54 379.82 412.51 380.89 412.49C381.976 412.38 383.07 412.356 384.16 412.42C383.44 413.294 382.629 414.088 381.74 414.79C380.805 415.428 379.818 415.987 378.79 416.46C378.25 416.64 377.69 416.82 377.12 416.97L376.27 417.2C375.97 417.2 375.67 417.26 375.37 417.29C374.759 417.352 374.144 417.379 373.53 417.37C372.91 417.3 372.28 417.2 371.66 417.1C369.145 416.527 366.949 415.004 365.53 412.85C364.867 411.869 364.403 410.767 364.166 409.607C363.93 408.447 363.924 407.252 364.15 406.09Z" fill="black"/>
<path d="M268.14 338.77C268.709 340.757 269.441 342.694 270.33 344.56C271.067 346.088 272.108 347.449 273.39 348.56C274.019 349.082 274.687 349.553 275.39 349.97C276.192 350.407 277.016 350.801 277.86 351.15C279.64 351.92 281.64 352.52 283.86 353.45C281.799 354.59 279.461 355.13 277.11 355.01C275.881 354.952 274.668 354.713 273.51 354.3C272.293 353.85 271.16 353.197 270.16 352.37C268.156 350.668 266.869 348.271 266.56 345.66C266.23 343.248 266.792 340.798 268.14 338.77Z" fill="black"/>
<path d="M231.1 259.56C225.71 260.7 172.45 299.3 178.59 308.05C180.77 311.33 210.03 307.99 234.64 297.88C234.64 297.87 234.77 265.7 231.1 259.56Z" fill="#006837" stroke="black" stroke-width="5" stroke-linecap="round" stroke-linejoin="round"/>
<path d="M334.26 122.79C343.98 122.79 351.86 115.031 351.86 105.46C351.86 95.8889 343.98 88.13 334.26 88.13C324.54 88.13 316.66 95.8889 316.66 105.46C316.66 115.031 324.54 122.79 334.26 122.79Z" fill="#006837" stroke="black" stroke-width="5" stroke-linecap="round" stroke-linejoin="round"/>
<path d="M269.65 278.69C246.65 288.58 234.27 297.69 234.27 297.69C234.27 297.69 191.44 150.36 314.85 114.03C246.98 159.15 269.63 278.56 269.63 278.56" fill="#006837"/>
<path d="M269.65 278.69C246.65 288.58 234.27 297.69 234.27 297.69C234.27 297.69 191.44 150.36 314.85 114.03C246.98 159.15 269.63 278.56 269.63 278.56" stroke="black" stroke-width="5" stroke-linecap="round" stroke-linejoin="round"/>
<path d="M507.84 175.2C506.263 168.94 504.203 162.812 501.68 156.87C499.271 151.116 496.415 145.559 493.14 140.25C490.092 135.278 486.644 130.562 482.83 126.15C479.983 122.853 476.916 119.753 473.65 116.87C469.316 113.038 464.629 109.626 459.65 106.68C457.65 105.47 455.54 104.34 453.37 103.26C436.47 94.1 411.46 93.11 387.22 95.67C379.86 96.44 372.57 97.54 365.6 98.84C361.98 99.5 358.45 100.23 355.05 100.98C346.68 102.86 339.05 104.92 332.63 106.92C324.03 109.62 317.63 112.21 314.8 114.03C294.8 127.34 282.65 147.09 275.48 168.35C273.491 174.319 271.855 180.399 270.58 186.56C269.693 190.78 268.95 194.987 268.35 199.18C267.4 205.79 266.79 212.31 266.42 218.62C265.91 227.67 265.91 236.26 266.19 243.95C266.51 252.79 267.19 260.46 267.87 266.32C268.77 274.03 269.63 278.61 269.63 278.61L270.22 278.47C280.31 276.07 418.85 242.31 509.07 180.98C509.07 180.95 508.74 178.81 507.84 175.2ZM379.27 230.37C379.27 230.37 375.93 204.13 398.12 193.95C420.31 183.77 438.47 203.76 438.47 203.76L379.27 230.37Z" fill="#006837" stroke="black" stroke-width="5" stroke-linecap="round" stroke-linejoin="round"/>
<path d="M570.76 192.18L451.45 267.63L433.45 271.09L279.39 254.96C279.39 254.96 335.75 329.83 384.33 329.26C384.33 329.26 426.33 332.14 437.68 285.48L454.47 282.61C454.47 282.61 473.05 300.46 499.47 301.04C525.89 301.62 557.27 277.13 570.76 192.18Z" fill="#CBE786" stroke="black" stroke-width="5" stroke-miterlimit="10"/>
<path d="M420.88 283.18L315.33 272.81C315.33 272.81 354.33 319.47 384.88 316.59C415.43 313.71 420.88 283.18 420.88 283.18Z" fill="black" stroke="black" stroke-width="5" stroke-miterlimit="10"/>
<path d="M551.57 219.25L464.04 272.81C464.04 272.81 471.84 286.64 502.41 286.64C542.19 283.56 551.57 219.25 551.57 219.25Z" fill="black" stroke="black" stroke-width="5" stroke-miterlimit="10"/>
<path d="M393.788 175.735C390.039 176.182 386.805 175.89 384.086 174.861C381.372 173.868 379.111 172.382 377.303 170.404C375.532 168.421 374.151 166.191 373.161 163.712C372.171 161.234 371.526 158.733 371.226 156.21C370.869 153.217 371.004 150.203 371.63 147.167C372.256 144.131 373.4 141.307 375.064 138.696C376.763 136.081 378.987 133.878 381.736 132.088C384.52 130.294 387.877 129.163 391.807 128.695C395.124 128.3 398.084 128.441 400.688 129.119C403.287 129.76 405.551 130.66 407.481 131.82C409.442 132.939 411.035 134.029 412.258 135.09L406.367 143.196C405.216 142.126 404.002 141.137 402.723 140.229C401.481 139.317 400.046 138.628 398.419 138.164C396.791 137.7 394.842 137.603 392.571 137.873C390.119 138.165 388.064 138.867 386.405 139.978C384.741 141.054 383.439 142.397 382.497 144.008C381.555 145.62 380.924 147.377 380.602 149.28C380.316 151.179 380.289 153.101 380.521 155.048C380.795 157.356 381.427 159.438 382.416 161.294C383.441 163.147 384.8 164.575 386.491 165.58C388.219 166.581 390.255 166.942 392.598 166.663C395.483 166.32 397.783 165.37 399.498 163.812C401.214 162.255 402.285 160.19 402.71 157.617C401.172 157.909 399.693 158.232 398.273 158.584C396.884 158.895 395.641 159.208 394.545 159.521L392.583 150.87C394.654 150.148 397.065 149.513 399.815 148.967C402.597 148.379 405.268 147.933 407.827 147.629C411.361 147.208 414.036 147.109 415.854 147.331L416.694 156.226C415.911 156.1 414.684 156.081 413.013 156.17C413.107 156.964 413.206 157.793 413.309 158.658C413.448 159.519 413.571 160.4 413.678 161.301C413.975 163.789 414.23 166.245 414.446 168.669C414.661 171.093 414.819 173.03 414.919 174.481L405.646 175.366C405.626 174.893 405.594 174.165 405.55 173.183C405.542 172.197 405.52 171.084 405.482 169.846C404.411 171.29 402.933 172.544 401.049 173.609C399.201 174.67 396.781 175.379 393.788 175.735Z" fill="#FDFFFE"/>
<path d="M226.26 373.34C234.398 374.392 242.36 376.517 249.94 379.66C259.22 383.66 259.44 396.83 250.41 401.4C247.828 402.712 244.859 403.046 242.05 402.34C232.65 399.97 212.16 393.06 215.26 378.34C218.75 361.75 243.26 339.34 250.03 334.83C252.26 333.34 264.42 325.72 269.26 332.34C273.26 337.34 272.26 345.34 263.35 353.85L236.26 385.34" fill="black"/>
<path d="M226.26 373.34C234.398 374.392 242.36 376.517 249.94 379.66C259.22 383.66 259.44 396.83 250.41 401.4C247.828 402.712 244.859 403.046 242.05 402.34C232.65 399.97 212.16 393.06 215.26 378.34C218.75 361.75 243.26 339.34 250.03 334.83C252.26 333.34 264.42 325.72 269.26 332.34C273.26 337.34 272.26 345.34 263.35 353.85L236.26 385.34" stroke="black" stroke-width="5" stroke-linecap="round" stroke-linejoin="round"/>
<path d="M241.04 411.11C238.98 410.24 235.5 408.35 233.62 405C230.79 400 231.54 391.68 242.79 385.41C242.79 385.41 254.67 379.15 261.73 383.56C264.47 385.27 265.35 388.67 265.05 394.26" fill="white"/>
<path d="M241.04 411.11C238.98 410.24 235.5 408.35 233.62 405C230.79 400 231.54 391.68 242.79 385.41C242.79 385.41 254.67 379.15 261.73 383.56C264.47 385.27 265.35 388.67 265.05 394.26" stroke="black" stroke-width="4" stroke-linecap="round" stroke-linejoin="round"/>
<path d="M267.6 458.24C271.095 458.179 274.541 457.41 277.73 455.98C286.89 451.69 296 441.05 290.89 422.63C285.1 401.74 272.89 395.84 265.05 394.26C262.736 393.754 260.359 393.602 258 393.81" fill="white"/>
<path d="M267.6 458.24C271.095 458.179 274.541 457.41 277.73 455.98C286.89 451.69 296 441.05 290.89 422.63C285.1 401.74 272.89 395.84 265.05 394.26C262.736 393.754 260.359 393.602 258 393.81" stroke="black" stroke-width="4" stroke-linecap="round" stroke-linejoin="round"/>
<path d="M249.72 458.56C257.72 460.77 263.5 460.2 267.6 458.21C278.77 452.77 277.86 436.71 277.86 436.71" fill="white"/>
<path d="M249.72 458.56C257.72 460.77 263.5 460.2 267.6 458.21C278.77 452.77 277.86 436.71 277.86 436.71" stroke="black" stroke-width="4" stroke-linecap="round" stroke-linejoin="round"/>
<path d="M268.89 457.56C271.806 457.623 274.697 457.014 277.34 455.78C288.51 450.34 287.6 434.29 287.6 434.29" stroke="black" stroke-width="4" stroke-linecap="round" stroke-linejoin="round"/>
<path d="M243.08 421.64C236.89 426.28 230.95 433.97 231.08 441.79C231.16 446.27 231.79 451.37 238.08 454.88C242.67 457.44 246.49 458.52 249.68 458.59C263.36 458.92 265.26 440.66 265.26 440.66" fill="white"/>
<path d="M243.08 421.64C236.89 426.28 230.95 433.97 231.08 441.79C231.16 446.27 231.79 451.37 238.08 454.88C242.67 457.44 246.49 458.52 249.68 458.59C263.36 458.92 265.26 440.66 265.26 440.66" stroke="black" stroke-width="4" stroke-linecap="round" stroke-linejoin="round"/>
<path d="M246.02 400.09C246.02 400.09 234.64 413.67 245.57 424.8C256.5 435.93 254.33 440.3 254.33 440.3" fill="white"/>
<path d="M246.02 400.09C246.02 400.09 234.64 413.67 245.57 424.8C256.5 435.93 254.33 440.3 254.33 440.3" stroke="black" stroke-width="4" stroke-linecap="round" stroke-linejoin="round"/>
<path d="M245.39 445.08C245.842 442.173 247.01 439.423 248.79 437.08C249.832 435.612 250.971 434.215 252.2 432.9" fill="white"/>
<path d="M245.39 445.08C245.842 442.173 247.01 439.423 248.79 437.08C249.832 435.612 250.971 434.215 252.2 432.9" stroke="black" stroke-width="4" stroke-linecap="round" stroke-linejoin="round"/>
<path d="M240.67 438.32C240.67 438.32 245.6 436.32 248.79 437.11L240.67 438.32Z" fill="white"/>
<path d="M240.67 438.32C240.67 438.32 245.6 436.32 248.79 437.11" stroke="black" stroke-width="4" stroke-linecap="round" stroke-linejoin="round"/>
<path d="M245.51 406.74L259.29 397.57L266.52 438.45L260.78 440.84L249.34 425.37L245.51 406.74Z" fill="white"/>
<path d="M87.3454 465.222C84.7905 465.222 82.6409 464.767 80.8967 463.858C79.1524 462.974 77.7521 461.795 76.6958 460.321C75.664 458.847 74.9147 457.238 74.4479 455.494C73.9811 453.749 73.7478 452.017 73.7478 450.298C73.7478 448.259 74.0794 446.244 74.7427 444.254C75.406 442.264 76.401 440.459 77.7276 438.837C79.0787 437.216 80.7493 435.914 82.7392 434.931C84.7536 433.949 87.0997 433.457 89.7775 433.457C92.0376 433.457 94.0153 433.789 95.7104 434.452C97.4055 435.091 98.8549 435.877 100.059 436.811C101.287 437.72 102.27 438.579 103.007 439.39L98.4004 444.365C97.7125 443.554 96.9755 442.793 96.1894 442.08C95.4278 441.368 94.5189 440.79 93.4625 440.348C92.4061 439.906 91.1041 439.685 89.5564 439.685C87.8859 439.685 86.4487 439.992 85.245 440.606C84.0412 441.196 83.0585 441.994 82.297 443.001C81.5354 444.009 80.9704 445.139 80.6019 446.392C80.2579 447.644 80.086 448.934 80.086 450.261C80.086 451.833 80.3439 453.283 80.8598 454.609C81.4003 455.936 82.1987 457.004 83.2551 457.815C84.336 458.626 85.6749 459.031 87.2717 459.031C89.237 459.031 90.8584 458.577 92.1359 457.668C93.4134 456.759 94.2978 455.457 94.7891 453.762C93.7327 453.835 92.7132 453.934 91.7306 454.056C90.7725 454.155 89.9126 454.265 89.1511 454.388L88.5246 448.418C89.974 448.099 91.6446 447.866 93.5362 447.718C95.4524 447.546 97.2826 447.46 99.0269 447.46C101.434 447.46 103.24 447.608 104.444 447.902L104.296 453.946C103.78 453.798 102.957 453.688 101.827 453.614C101.827 454.155 101.827 454.72 101.827 455.309C101.852 455.899 101.864 456.501 101.864 457.115C101.864 458.81 101.84 460.481 101.791 462.127C101.741 463.773 101.692 465.087 101.643 466.069L95.3419 465.922C95.3664 465.603 95.4033 465.111 95.4524 464.448C95.5261 463.785 95.5998 463.036 95.6735 462.2C94.8382 463.085 93.745 463.809 92.3939 464.374C91.0673 464.939 89.3844 465.222 87.3454 465.222ZM123.383 465.959C121.073 465.959 118.973 465.529 117.081 464.669C115.19 463.834 113.556 462.667 112.18 461.168C110.804 459.67 109.748 457.962 109.011 456.046C108.274 454.13 107.906 452.103 107.906 449.966C107.906 448.001 108.2 446.072 108.79 444.181C109.38 442.264 110.276 440.532 111.48 438.985C112.684 437.412 114.207 436.16 116.049 435.226C117.917 434.293 120.115 433.826 122.646 433.826C125.274 433.826 127.559 434.28 129.5 435.189C131.44 436.074 133.037 437.265 134.29 438.764C135.543 440.262 136.477 441.957 137.091 443.849C137.705 445.741 138.012 447.681 138.012 449.671C138.012 452.054 137.656 454.241 136.943 456.231C136.231 458.22 135.224 459.952 133.922 461.426C132.62 462.876 131.072 463.994 129.279 464.78C127.485 465.566 125.52 465.959 123.383 465.959ZM123.383 459.805C124.857 459.805 126.22 459.449 127.473 458.736C128.726 457.999 129.733 456.857 130.495 455.309C131.256 453.762 131.637 451.747 131.637 449.266C131.637 447.129 131.219 445.372 130.384 443.996C129.549 442.621 128.468 441.601 127.141 440.938C125.815 440.274 124.427 439.943 122.977 439.943C121.331 439.943 119.943 440.238 118.813 440.827C117.683 441.417 116.774 442.215 116.086 443.222C115.398 444.205 114.907 445.311 114.612 446.539C114.317 447.767 114.17 449.033 114.17 450.335C114.17 451.612 114.416 452.828 114.907 453.983C115.398 455.113 116.062 456.12 116.897 457.004C117.757 457.864 118.739 458.552 119.845 459.068C120.95 459.559 122.13 459.805 123.383 459.805ZM146.192 466.622L141.586 461.869C142.815 460.345 144.399 458.466 146.34 456.231C148.281 453.995 150.356 451.661 152.567 449.229C150.356 446.895 148.281 444.746 146.34 442.78C144.399 440.815 142.827 439.23 141.623 438.027L146.377 433.531C147.531 434.661 149.042 436.196 150.909 438.137C152.801 440.078 154.815 442.203 156.953 444.512C158.918 442.449 160.834 440.483 162.701 438.616C164.593 436.749 166.313 435.152 167.86 433.826L172.466 438.469C170.943 439.771 169.224 441.355 167.307 443.222C165.391 445.09 163.414 447.079 161.375 449.192C163.561 451.526 165.649 453.798 167.639 456.009C169.654 458.22 171.361 460.137 172.761 461.758L167.676 466.475C166.349 464.681 164.74 462.692 162.849 460.505C160.982 458.319 159.016 456.12 156.953 453.909C154.791 456.243 152.764 458.528 150.872 460.763C148.981 462.974 147.421 464.927 146.192 466.622ZM191.649 465.959C189.339 465.959 187.239 465.529 185.347 464.669C183.456 463.834 181.822 462.667 180.446 461.168C179.071 459.67 178.014 457.962 177.277 456.046C176.54 454.13 176.172 452.103 176.172 449.966C176.172 448.001 176.466 446.072 177.056 444.181C177.646 442.264 178.542 440.532 179.746 438.985C180.95 437.412 182.473 436.16 184.315 435.226C186.183 434.293 188.381 433.826 190.912 433.826C193.54 433.826 195.825 434.28 197.766 435.189C199.707 436.074 201.303 437.265 202.556 438.764C203.809 440.262 204.743 441.957 205.357 443.849C205.971 445.741 206.278 447.681 206.278 449.671C206.278 452.054 205.922 454.241 205.209 456.231C204.497 458.22 203.49 459.952 202.188 461.426C200.886 462.876 199.338 463.994 197.545 464.78C195.751 465.566 193.786 465.959 191.649 465.959ZM191.649 459.805C193.123 459.805 194.486 459.449 195.739 458.736C196.992 457.999 197.999 456.857 198.761 455.309C199.522 453.762 199.903 451.747 199.903 449.266C199.903 447.129 199.485 445.372 198.65 443.996C197.815 442.621 196.734 441.601 195.407 440.938C194.081 440.274 192.693 439.943 191.243 439.943C189.597 439.943 188.209 440.238 187.079 440.827C185.949 441.417 185.04 442.215 184.352 443.222C183.664 444.205 183.173 445.311 182.878 446.539C182.584 447.767 182.436 449.033 182.436 450.335C182.436 451.612 182.682 452.828 183.173 453.983C183.664 455.113 184.328 456.12 185.163 457.004C186.023 457.864 187.006 458.552 188.111 459.068C189.217 459.559 190.396 459.805 191.649 459.805Z" fill="black"/>
<path d="M132.5 734.5C176.13 734.5 211.5 699.13 211.5 655.5C211.5 611.87 176.13 576.5 132.5 576.5C88.8695 576.5 53.5 611.87 53.5 655.5C53.5 699.13 88.8695 734.5 132.5 734.5Z" fill="black" stroke="black" stroke-width="5" stroke-miterlimit="10"/>
<path d="M132.5 692.5C153.487 692.5 170.5 675.487 170.5 654.5C170.5 633.513 153.487 616.5 132.5 616.5C111.513 616.5 94.5 633.513 94.5 654.5C94.5 675.487 111.513 692.5 132.5 692.5Z" fill="#CCCCCC" stroke="black" stroke-width="5" stroke-miterlimit="10"/>
<path d="M196.49 670.65C196.49 670.65 194 697 174.14 707" stroke="#CCCCCC" stroke-width="5" stroke-linecap="round" stroke-linejoin="round"/>
<path d="M183.09 671.19C183.09 671.19 181.7 685.79 170.7 691.32" stroke="#CCCCCC" stroke-width="5" stroke-linecap="round" stroke-linejoin="round"/>
<path d="M67.53 644.82C67.53 644.82 70.25 618.49 90.17 608.67" stroke="#CCCCCC" stroke-width="5" stroke-linecap="round" stroke-linejoin="round"/>
<path d="M80.9399 644.38C80.9399 644.38 82.4399 629.8 93.4799 624.38" stroke="#CCCCCC" stroke-width="5" stroke-linecap="round" stroke-linejoin="round"/>
<path d="M711.5 734.5C755.13 734.5 790.5 699.13 790.5 655.5C790.5 611.87 755.13 576.5 711.5 576.5C667.87 576.5 632.5 611.87 632.5 655.5C632.5 699.13 667.87 734.5 711.5 734.5Z" fill="black" stroke="black" stroke-width="5" stroke-miterlimit="10"/>
<path d="M711.5 692.5C732.487 692.5 749.5 675.487 749.5 654.5C749.5 633.513 732.487 616.5 711.5 616.5C690.513 616.5 673.5 633.513 673.5 654.5C673.5 675.487 690.513 692.5 711.5 692.5Z" fill="#CCCCCC" stroke="black" stroke-width="5" stroke-miterlimit="10"/>
<path d="M775.49 670.65C775.49 670.65 773 697 753.14 707" stroke="#CCCCCC" stroke-width="5" stroke-linecap="round" stroke-linejoin="round"/>
<path d="M762.09 671.19C762.09 671.19 760.7 685.79 749.7 691.32" stroke="#CCCCCC" stroke-width="5" stroke-linecap="round" stroke-linejoin="round"/>
<path d="M646.53 644.82C646.53 644.82 649.25 618.49 669.17 608.67" stroke="#CCCCCC" stroke-width="5" stroke-linecap="round" stroke-linejoin="round"/>
<path d="M659.94 644.38C659.94 644.38 661.44 629.8 672.48 624.38" stroke="#CCCCCC" stroke-width="5" stroke-linecap="round" stroke-linejoin="round"/>
</svg>
