<svg width="61" height="81" viewBox="0 0 61 81" fill="none" xmlns="http://www.w3.org/2000/svg">
<g clip-path="url(#clip0_29_674)">
<path d="M27.4401 73.61C27.6801 75.45 27.8401 77.71 27.9501 80.1H32.8101C32.9201 77.71 33.0801 75.45 33.3201 73.61C34.3201 65.84 34.9501 68.09 36.7901 64.61C37.3028 63.5924 37.4988 62.4444 37.3526 61.3143C37.2064 60.1842 36.7249 59.1238 35.9701 58.27H24.7801C24.0282 59.1255 23.5493 60.1863 23.4049 61.316C23.2606 62.4458 23.4574 63.593 23.9701 64.61C25.8001 68.09 26.4201 65.84 27.4401 73.61Z" fill="#FC4729"/>
<path d="M60.7598 30.41C60.7624 34.4017 59.9786 38.3548 58.4532 42.0436C56.9278 45.7323 54.6906 49.0844 51.8694 51.9084C49.0482 54.7323 45.6983 56.9729 42.0111 58.502C38.3239 60.031 34.3715 60.8187 30.3798 60.82C22.3268 60.8041 14.6094 57.5926 8.92254 51.8907C3.2357 46.1889 0.0444958 38.463 0.0498113 30.41C0.047158 22.3492 3.24608 14.6172 8.94315 8.91455C14.6402 3.21186 22.369 0.00530275 30.4298 0C38.482 0.0185408 46.1979 3.23099 51.8842 8.93225C57.5704 14.6335 60.7625 22.3578 60.7598 30.41Z" fill="white"/>
<path d="M50.5799 7.69995C51.004 8.90012 51.3383 10.1302 51.5799 11.3799C51.3586 11.3179 51.1297 11.2877 50.8999 11.29C47.8999 11.29 47.8999 15.9 50.8999 15.9C51.3421 15.9104 51.7774 15.7886 52.1499 15.55C52.3754 17.4881 52.4723 19.439 52.4399 21.39C52.0799 21.1776 51.6677 21.0703 51.2499 21.08C48.2499 21.08 48.2499 25.6899 51.2499 25.6899C51.5441 25.6919 51.836 25.6376 52.1099 25.53C51.9009 26.9698 51.5663 28.3885 51.1099 29.77C50.8717 29.586 50.6 29.4501 50.3099 29.3699C49.981 29.2932 49.6388 29.2932 49.3099 29.3699C49.1519 29.3379 48.9911 29.3212 48.8299 29.3199C48.2207 29.3173 47.635 29.5553 47.2005 29.9824C46.766 30.4094 46.5178 30.9908 46.5099 31.6C46.5001 32.1237 46.6277 32.6409 46.8799 33.1C47.0996 33.4608 47.4078 33.7594 47.7753 33.9677C48.1429 34.1759 48.5575 34.2869 48.9799 34.29H49.0399C47.8263 35.8981 46.4636 37.388 44.9699 38.7399C44.8603 38.4199 44.679 38.1292 44.4399 37.89C44.3236 37.7816 44.1999 37.6814 44.0699 37.59C43.8638 37.283 43.5855 37.0313 43.2594 36.857C42.9334 36.6826 42.5696 36.591 42.1999 36.59C41.5905 36.5925 41.0064 36.8337 40.5727 37.2617C40.1391 37.6898 39.8903 38.2707 39.8799 38.8799C39.8799 39.2419 39.9303 39.602 40.0299 39.95C40.1691 40.4371 40.4347 40.8788 40.7999 41.23C40.9841 41.3867 41.1815 41.5273 41.3899 41.65C39.7707 42.7776 38.0499 43.7518 36.2499 44.5599C36.1837 44.0635 35.9551 43.6029 35.5999 43.2499C35.1746 42.8273 34.5994 42.59 33.9999 42.59C33.7691 42.5823 33.5387 42.6162 33.3199 42.6899C32.9303 42.5777 32.5178 42.5724 32.1254 42.6744C31.7331 42.7765 31.3754 42.9822 31.0899 43.27C30.6781 43.6908 30.4418 44.2525 30.4288 44.8411C30.4158 45.4298 30.6271 46.0013 31.0199 46.4399C28.6056 47.1091 26.1295 47.5312 23.6299 47.7C23.7506 47.5081 23.8416 47.299 23.8999 47.08C23.9828 46.783 24.0052 46.4724 23.9657 46.1666C23.9262 45.8608 23.8256 45.5661 23.6699 45.3C23.3534 44.8037 22.8601 44.4462 22.2899 44.3C22.0529 44.2319 21.8054 44.2081 21.5599 44.23C21.0874 44.2008 20.6162 44.3047 20.1999 44.53C20.0599 44.6 19.9199 44.6699 19.7899 44.7499C19.5583 44.8886 19.3406 45.0494 19.1399 45.23C19.0026 45.3848 18.8757 45.5485 18.7599 45.72C18.4584 46.2509 18.3724 46.8774 18.5199 47.47C18.5505 47.5753 18.5872 47.6789 18.6299 47.78C13.098 47.482 7.70891 45.9149 2.87988 43.2C5.30748 48.4846 9.19995 52.962 14.0955 56.101C18.9911 59.2401 24.6843 60.9091 30.4999 60.91C34.4916 60.9087 38.4439 60.1209 42.1312 58.5919C45.8184 57.0628 49.1683 54.8223 51.9895 51.9984C54.8106 49.1744 57.0478 45.8223 58.5733 42.1335C60.0987 38.4448 60.8825 34.4917 60.8799 30.4999C60.8821 26.1858 59.9646 21.9208 58.1885 17.9893C56.4124 14.0577 53.8186 10.55 50.5799 7.69995Z" fill="#D0D1D3"/>
<path d="M8.33008 40.6499C5.33008 40.6499 5.33008 45.2599 8.33008 45.2599C11.3301 45.2599 11.3001 40.6499 8.33008 40.6499Z" fill="#D0D1D3"/>
<path d="M17.4898 36.2701H17.3598C16.8313 35.9716 16.2078 35.8892 15.6198 36.0401C15.3265 36.1151 15.0513 36.2485 14.8107 36.4323C14.5702 36.6162 14.3692 36.8468 14.2198 37.1101C14.0671 37.3719 13.9681 37.6615 13.9286 37.9619C13.8891 38.2624 13.9099 38.5678 13.9898 38.8601C14.064 39.1538 14.1959 39.4297 14.3779 39.6718C14.5599 39.9139 14.7884 40.1173 15.0498 40.2701C15.6909 40.623 16.4002 40.8345 17.1298 40.8901C17.7392 40.8876 18.3233 40.6464 18.757 40.2183C19.1906 39.7903 19.4394 39.2094 19.4498 38.6001C19.4611 38.0401 19.2686 37.4951 18.908 37.0665C18.5475 36.6379 18.0435 36.3549 17.4898 36.2701Z" fill="#D0D1D3"/>
<path d="M27.8901 35.6001C24.8901 35.6001 24.8901 40.2101 27.8901 40.2101C30.8901 40.2101 30.8501 35.6001 27.8901 35.6001Z" fill="#D0D1D3"/>
<path d="M37.98 30.55C34.98 30.55 34.98 35.16 37.98 35.16C40.98 35.16 40.95 30.55 37.98 30.55Z" fill="#D0D1D3"/>
<path d="M43.3398 23.6001C40.3398 23.6001 40.3398 28.2101 43.3398 28.2101C46.3398 28.2101 46.3098 23.6001 43.3398 23.6001Z" fill="#D0D1D3"/>
<path d="M43.9801 10.97C43.3716 10.975 42.7889 11.217 42.3558 11.6445C41.9227 12.0721 41.6731 12.6515 41.6602 13.2599V13.58C41.6626 14.1876 41.9024 14.7703 42.3283 15.2037C42.7542 15.6371 43.3326 15.8869 43.9402 15.9C44.5503 15.9 45.1359 15.6597 45.5701 15.2311C46.0044 14.8025 46.2523 14.2201 46.2602 13.61V13.27C46.2525 12.6658 46.0105 12.0882 45.5851 11.6591C45.1597 11.2299 44.5842 10.9829 43.9801 10.97Z" fill="#D0D1D3"/>
<path d="M42.4701 6.6601C42.4676 6.05244 42.2278 5.46978 41.8019 5.03638C41.376 4.60298 40.7976 4.35312 40.1901 4.34009C39.9179 4.34585 39.6468 4.37594 39.3801 4.43005C38.9541 4.53424 38.5661 4.75601 38.2601 5.07007C37.9581 5.37023 37.7437 5.74712 37.6401 6.1601C37.5892 6.42041 37.5624 6.68484 37.5601 6.95007C37.5625 7.55773 37.8023 8.14039 38.2282 8.57379C38.6542 9.00719 39.2325 9.25705 39.8401 9.27008C40.1847 9.26686 40.5244 9.18819 40.8354 9.03961C41.1464 8.89104 41.421 8.67618 41.6401 8.4101C41.8979 8.19676 42.1058 7.92948 42.2492 7.62714C42.3926 7.32479 42.468 6.99472 42.4701 6.6601Z" fill="#D0D1D3"/>
<path d="M6.78015 29.95C6.3447 29.5236 5.75956 29.2849 5.15016 29.2849C4.54076 29.2849 3.95561 29.5236 3.52016 29.95C3.18879 30.1614 2.91687 30.454 2.73015 30.8C2.5291 31.1542 2.41915 31.5528 2.41016 31.96C2.41488 32.1827 2.44508 32.4041 2.50015 32.6199C2.62921 33.0849 2.88142 33.5064 3.23015 33.84C3.66265 34.268 4.24661 34.5082 4.85515 34.5082C5.46369 34.5082 6.04764 34.268 6.48015 33.84C6.7319 33.5875 6.92037 33.2791 7.03015 32.9399C7.34355 32.4906 7.49009 31.9458 7.44444 31.3998C7.39879 30.8539 7.16382 30.341 6.78015 29.95Z" fill="#D0D1D3"/>
<path d="M19.7502 26.9699C19.6983 26.4012 19.4376 25.8718 19.0184 25.484C18.5992 25.0962 18.0512 24.8774 17.4801 24.8699C16.8717 24.8698 16.2876 25.1087 15.8537 25.5352C15.4197 25.9617 15.1706 26.5416 15.1602 27.1499C15.1601 27.5165 15.2003 27.882 15.2802 28.2399C15.4349 28.815 15.7384 29.3393 16.1602 29.7599C16.5927 30.188 17.1766 30.4281 17.7852 30.4281C18.3937 30.4281 18.9776 30.188 19.4102 29.7599C19.7688 29.3988 19.997 28.9285 20.0585 28.4232C20.1201 27.918 20.0116 27.4066 19.7502 26.9699Z" fill="#D0D1D3"/>
<path d="M32.6201 22.97H31.8901C31.2817 22.9725 30.6986 23.214 30.2665 23.6423C29.8345 24.0707 29.5879 24.6516 29.5801 25.2599C29.58 25.8684 29.8189 26.4525 30.2454 26.8865C30.6719 27.3204 31.2517 27.5695 31.8601 27.58H32.5901C33.1986 27.5749 33.7813 27.3329 34.2144 26.9054C34.6476 26.4779 34.8971 25.8984 34.9101 25.29C34.905 24.6814 34.663 24.0987 34.2355 23.6656C33.808 23.2325 33.2285 22.983 32.6201 22.97Z" fill="#D0D1D3"/>
<path d="M39.8301 17.2699C39.682 16.8112 39.3941 16.4103 39.0068 16.1234C38.6195 15.8364 38.1521 15.6779 37.6701 15.6699C37.06 15.6699 36.4744 15.9101 36.0401 16.3387C35.6059 16.7674 35.358 17.3498 35.3501 17.9599V18.1599C35.361 18.6042 35.4776 19.0395 35.6901 19.4299C35.861 19.7364 36.0844 20.0106 36.3501 20.2399C36.7826 20.668 37.3666 20.9081 37.9751 20.9081C38.5836 20.9081 39.1676 20.668 39.6001 20.2399C39.9792 19.8496 40.2097 19.3389 40.2517 18.7964C40.2937 18.254 40.1446 17.7139 39.8301 17.2699Z" fill="#D0D1D3"/>
<path d="M32.9301 5.61011C32.3234 5.61263 31.7418 5.85268 31.31 6.27887C30.8782 6.70506 30.6306 7.28346 30.6201 7.89008V8.89008C30.62 9.49851 30.8589 10.0826 31.2854 10.5166C31.7119 10.9506 32.2918 11.1996 32.9001 11.2101C33.5103 11.2101 34.0958 10.9698 34.5301 10.5412C34.9643 10.1126 35.2122 9.53019 35.2201 8.9201V7.9801C35.2267 7.67376 35.1726 7.36911 35.0609 7.0838C34.9491 6.79849 34.782 6.53816 34.5691 6.31781C34.3561 6.09746 34.1017 5.92146 33.8204 5.79999C33.5391 5.67852 33.2365 5.614 32.9301 5.61011Z" fill="#D0D1D3"/>
</g>
<defs>
<clipPath id="clip0_29_674">
<rect width="60.76" height="80.09" fill="white"/>
</clipPath>
</defs>
</svg>
